<?xml  version="1.0" encoding="UTF-8"?>
<!DOCTYPE svg PUBLIC "-//W3C//DTD SVG 1.0//EN" "http://www.w3.org/TR/2001/REC-SVG-20010904/DTD/svg10.dtd" >
<svg xmlns="http://www.w3.org/2000/svg" >
<metadata>
<version>1.0</version>
<id><![CDATA[SST W01 Light]]></id>
<vendor>Monotype Imaging Inc.</vendor>
<credits>
<name>Fonts.com WebFonts</name>
<URL>http://webfonts.fonts.com</URL>
<role>Home of the Web fonts</role>
</credits>
<license>
<URL>http://webfonts.fonts.com/Legal</URL>
</license>
<copyright><![CDATA[Copyright © 2011 Linotype GmbH, www.linotype.com. All rights reserved. This font software may not be reproduced, modified, disclosed or transferred without the express written approval of Linotype GmbH. SST is a trademark of Linotype GmbH and may be registered in certain jurisdictions. This typeface is original artwork of Akira Kobayashi. The design may be protected in certain jurisdictions.]]></copyright>
<trademark><![CDATA[SST is a trademark of Linotype GmbH and may be registered in certain jurisdictions.]]></trademark>
<licensee>
<name></name>
</licensee>
</metadata>
<defs >
<font horiz-adv-x="526" id="766b32a6-2abc-4be8-9ec8-d48a0781122e">
<font-face font-family="" panose-1="2 11 3 4 3 5 4 2 2 4" ascent="1077" descent="-230" units-per-em="1000" alphabetic="0">
</font-face>
<missing-glyph horiz-adv-x="0" />

<glyph unicode="&#xA;" />
<glyph unicode="&#xD;" horiz-adv-x="0" />
<glyph unicode=" " horiz-adv-x="260" />
<glyph unicode="!" horiz-adv-x="305" d="M116 78H188V0H116V78ZM118 714H187L175 187H130L118 714Z"  />
<glyph unicode="&quot;" horiz-adv-x="364" d="M87 735H149L136 512H100L87 735ZM215 735H277L264 512H228L215 735Z"  />
<glyph unicode="#" horiz-adv-x="555" d="M144 221H37V264H150L176 451H62V494H182L212 714H256L225 494H383L414 714H458L427 494H522V451H421L395 264H495V221H389L358 0H313L345 221H188L157 0H113L144 221ZM194 264H351L378 451H219L194 264Z"  />
<glyph unicode="$" horiz-adv-x="531" d="M427 626Q395 640 361 647T293 656V381Q334 365 366 347T422 307T457 256T470 188Q470 147 456 115T418 62T362 28T293 11V-78H249V9Q203 9 153 20T62 52Q67 64 70 76T77 100Q117 79 160 68T249 55V343L224 353Q149 384 111 425T73 533Q73 572 87 601T125 652T182 685T249 700V783H293V702Q331 700 369 693T442 671L427 626ZM416 185Q416 234 383 267T293 324V58Q351 66 383 98T416 185ZM127 537Q128 485 158 455T249 399V655Q196 649 162 620T127 537Z"  />
<glyph unicode="%" horiz-adv-x="765" d="M137 0Q250 180 360 357T583 714H626L180 0H137ZM279 536Q279 565 275 590T260 633T234 662T196 673Q174 673 158 663T132 633T118 589T113 536Q113 508 117 484T132 441T158 411T196 400Q218 400 234 410T260 439T274 483T279 536ZM327 536Q327 456 294 408T196 359Q133 359 99 408T65 536Q65 616 99 665T196 714Q260 714 293 666T327 536ZM653 172Q653 234 633 271T570 308Q548 308 533 298T507 269T492 226T487 172Q487 143 492 119T507 76T532 47T570 36Q592 36 608 46T634 75T648 118T653 172ZM700 172Q700 92 667 44T570 -5Q507 -5 473 43T439 172Q439 252 473 301T570 350Q632 350 666 301T700 172Z"  />
<glyph unicode="&amp;" horiz-adv-x="691" d="M418 575Q418 624 388 652T307 680Q256 680 226 650T195 569Q195 526 217 490T275 417Q302 428 327 442T373 476T406 519T418 575ZM256 361Q187 331 153 289T118 183Q118 151 129 124T160 77T208 46T269 35Q328 35 372 66T445 148L256 361ZM653 0H577L481 109Q441 49 390 19T267 -12Q224 -12 187 0T121 37T77 98T61 180Q61 258 104 311T226 397Q186 439 164 478T141 566Q141 604 154 633T189 683T242 715T307 726Q381 726 426 687T472 575Q472 539 459 509T423 456T370 414T307 381L475 194Q483 209 494 230T515 276T536 324T555 368H617Q607 345 594 317T567 259T539 203T514 157L653 0Z"  />
<glyph unicode="&apos;" horiz-adv-x="242" d="M87 735H149L136 512H100L87 735Z"  />
<glyph unicode="(" horiz-adv-x="310" d="M96 302Q96 169 129 40T229 -195H175Q117 -102 81 27T45 302Q45 445 80 573T175 797H229Q163 691 130 562T96 302Z"  />
<glyph unicode=")" horiz-adv-x="310" d="M214 299Q214 433 181 562T81 797H134Q193 702 229 574T265 299Q265 155 230 28T134 -195H81Q147 -89 180 39T214 299Z"  />
<glyph unicode="*" horiz-adv-x="413" d="M226 572L364 615L377 577L241 534L330 408L298 384L206 512L116 384L83 408L172 534L36 577L50 615L187 572V712H226V572Z"  />
<glyph unicode="+" horiz-adv-x="536" d="M291 542V337H491V293H291V80H245V293H45V337H245V542H291Z"  />
<glyph unicode="&#x2c;" horiz-adv-x="264" d="M112 84H176L102 -145H65L112 84Z"  />
<glyph unicode="-" horiz-adv-x="380" d="M74 325H306V277H74V325Z"  />
<glyph unicode="." horiz-adv-x="264" d="M94 81H169V0H94V81Z"  />
<glyph unicode="/" horiz-adv-x="493" d="M388 714H446L105 0H47L388 714Z"  />
<glyph unicode="0" horiz-adv-x="608" d="M304 726Q368 726 415 699T492 623T538 506T553 355Q553 273 538 205T493 89T415 15T304 -12Q239 -12 192 14T115 89T70 205T55 355Q55 437 69 505T114 623T192 699T304 726ZM304 676Q252 676 216 653T157 588T124 486T113 355Q113 284 123 226T157 126T216 61T304 38Q355 38 391 61T450 125T484 225T495 355Q495 427 484 486T450 587T391 652T304 676Z"  />
<glyph unicode="1" horiz-adv-x="374" d="M256 0H198V658L44 553L17 595L192 714H256V0Z"  />
<glyph unicode="2" d="M479 0H39V53Q154 160 227 234T341 360T396 452T411 533Q411 567 399 593T365 638T314 666T251 676Q203 676 160 657T82 606L55 647Q96 686 146 706T252 726Q298 726 337 714T406 678T452 618T469 535Q469 502 463 471T441 410T399 345T334 268T239 172T112 50H479V0Z"  />
<glyph unicode="3" horiz-adv-x="528" d="M129 393H196Q242 393 277 402T339 428T380 474T396 540Q396 607 352 641T237 676Q192 676 150 666T67 631L48 679Q91 703 140 714T240 726Q286 726 325 714T393 678T438 621T454 544Q454 474 415 431T307 371V369Q383 358 429 313T475 193Q475 144 457 106T407 42T330 2T234 -12Q177 -12 124 0T31 35L50 83Q89 61 135 50T235 38Q274 38 307 47T365 75T403 123T417 193Q417 236 398 264T349 310T278 335T196 343H129V393Z"  />
<glyph unicode="4" horiz-adv-x="569" d="M431 232H536V182H431V0H373V182H24V243L340 714H431V232ZM373 665H371L81 232H373V665Z"  />
<glyph unicode="5" horiz-adv-x="536" d="M424 216Q424 263 407 295T360 347T294 376T218 385Q181 385 147 382T73 370L87 714H441V664H139L128 426Q156 431 183 432T228 434Q279 434 325 421T406 382T461 315T482 219Q482 161 463 118T409 46T329 3T229 -12Q178 -12 133 -3T43 26L61 75Q99 57 140 48T228 38Q270 38 306 48T368 81T409 136T424 216Z"  />
<glyph unicode="6" horiz-adv-x="572" d="M117 249Q117 214 126 178T157 109T213 58T295 38Q335 38 367 52T422 91T457 151T469 228Q469 265 458 298T426 356T374 395T302 410Q261 410 228 397T169 361T131 309T117 249ZM114 357Q139 402 190 431T305 460Q356 460 397 443T467 394T511 320T527 228Q527 176 511 132T464 57T392 7T297 -12Q228 -12 181 16T106 90T67 192T55 306Q55 391 70 467T118 600T204 692T332 726Q370 726 404 719T466 701L451 654Q396 676 332 676Q272 676 231 649T164 575T127 472T112 357H114Z"  />
<glyph unicode="7" horiz-adv-x="493" d="M35 714H460V664Q406 584 364 497T291 323T241 154T214 0H156Q164 74 184 159T236 333T308 506T397 664H35V714Z"  />
<glyph unicode="8" horiz-adv-x="581" d="M290 347Q257 347 225 338T165 310T121 262T104 192Q104 152 118 124T158 76T217 48T290 39Q329 39 363 48T422 75T462 123T477 192Q477 232 460 261T417 310T357 338T290 347ZM289 727Q332 727 372 716T443 681T492 623T511 541Q511 504 501 477T474 429T433 396T383 376V374Q412 366 439 352T488 315T522 262T535 188Q535 137 515 100T463 38T385 1T290 -11Q241 -11 197 1T119 37T66 99T46 188Q46 228 59 259T93 312T143 349T200 371V373Q174 379 151 392T110 428T81 477T70 541Q70 588 88 623T137 681T207 715T289 727ZM290 396Q321 396 350 404T403 429T439 474T453 541Q453 603 408 640T289 677Q220 677 174 641T128 541Q128 502 141 475T177 430T229 404T290 396Z"  />
<glyph unicode="9" horiz-adv-x="572" d="M456 465Q456 500 447 537T416 605T360 656T277 676Q237 676 205 662T150 623T115 563T103 486Q103 448 114 415T146 358T198 319T270 304Q311 304 346 317T405 353T442 404T456 465ZM458 357Q433 312 383 283T267 254Q216 254 175 271T105 320T61 395T45 486Q45 538 61 582T109 658T181 708T275 726Q343 726 391 698T466 625T506 523T518 408Q518 323 503 247T455 113T370 22T242 -12Q207 -12 167 -6T96 13L109 61Q138 50 173 44T240 38Q299 38 341 65T408 139T446 242T460 357H458Z"  />
<glyph unicode=":" horiz-adv-x="320" d="M125 81H197V0H125V81ZM125 528H197V447H125V528Z"  />
<glyph unicode=";" horiz-adv-x="320" d="M134 84H197L124 -145H86L134 84ZM125 528H197V447H125V528Z"  />
<glyph unicode="&lt;" horiz-adv-x="536" d="M45 280V343L491 510V462L89 314V312L491 161V114L45 280Z"  />
<glyph unicode="=" horiz-adv-x="536" d="M45 383V427H491V383H45ZM45 204V248H491V204H45Z"  />
<glyph unicode="&gt;" horiz-adv-x="536" d="M45 114V161L446 312V314L45 462V510L491 343V280L45 114Z"  />
<glyph unicode="?" horiz-adv-x="462" d="M172 0V78H248V0H172ZM236 162H183V198Q183 230 187 255T201 302T224 342T260 380L298 414Q329 440 350 476T371 553Q371 587 360 610T327 648T281 669T225 676Q155 676 84 636L66 682Q101 702 141 714T230 726Q269 726 304 717T367 688T412 635T429 555Q429 503 407 463T347 389L312 358Q291 339 277 323T253 288T240 248T236 194V162Z"  />
<glyph unicode="@" horiz-adv-x="930" d="M479 467Q441 467 412 446T362 391T330 317T319 236Q319 211 324 185T341 135T375 98T428 84Q471 84 500 108T549 170T576 248T585 322Q585 348 580 375T563 422T531 455T479 467ZM742 -130Q687 -156 623 -169T487 -182Q383 -182 302 -149T164 -55T79 88T49 271Q49 370 82 452T173 596T310 692T482 726Q563 726 634 703T761 633T848 513T880 341Q880 271 865 215T822 119T757 58T676 37Q647 37 628 47T596 72T579 105T574 140H572Q566 127 554 109T523 75T478 48T420 37Q380 37 351 52T302 95T274 159T264 239Q264 290 279 338T322 426T390 490T481 514Q509 514 530 505T567 481T592 448T607 409H609L627 497H675L630 271Q625 247 621 218T617 168Q617 154 619 140T628 113T648 92T684 84Q716 84 742 103T788 157T817 237T828 336Q828 421 802 485T729 593T617 657T481 679Q400 679 330 648T210 562T132 432T104 270Q104 178 131 104T208 -23T331 -104T494 -133Q562 -133 620 -120T730 -84L742 -130Z"  />
<glyph unicode="A" horiz-adv-x="642" d="M68 0H6L283 714H363L636 0H573L484 227H156L68 0ZM172 277H469L322 670L172 277Z"  />
<glyph unicode="B" horiz-adv-x="610" d="M95 714H320Q368 714 406 704T474 671T519 614T534 534Q534 467 496 426T397 371V369Q428 363 456 351T506 318T540 268T553 197Q553 155 539 119T497 56T427 15T327 0H95V714ZM153 393H301Q384 393 430 427T476 531Q476 569 463 595T427 636T374 657T308 664H153V393ZM153 50H318Q402 49 448 85T495 198Q495 239 480 267T438 311T377 335T301 343H153V50Z"  />
<glyph unicode="C" horiz-adv-x="605" d="M549 644Q516 660 480 668T404 676Q330 675 278 651T190 584T136 481T118 354Q118 289 136 232T189 131T277 63T402 38Q449 38 489 48T558 75L575 28Q500 -12 399 -12Q318 -12 255 15T149 91T83 207T60 355Q60 435 82 502T148 620T257 698T403 726Q448 726 491 717T567 691L549 644Z"  />
<glyph unicode="D" horiz-adv-x="687" d="M95 714H275Q357 714 423 691T535 622T605 512T630 357Q630 270 606 204T536 92T424 24T275 0H95V714ZM153 50H267Q417 50 494 130T572 357Q572 505 494 584T267 664H153V50Z"  />
<glyph unicode="E" horiz-adv-x="536" d="M95 714H475V664H153V393H452V343H153V50H484V0H95V714Z"  />
<glyph unicode="F" horiz-adv-x="502" d="M95 714H461V664H153V393H443V343H153V0H95V714Z"  />
<glyph unicode="G" horiz-adv-x="709" d="M587 635Q543 657 503 666T416 676Q343 676 287 651T194 582T137 481T118 357Q118 291 138 233T195 132T286 64T415 38Q503 38 565 73V324H400V374H623V40Q570 12 517 0T411 -12Q329 -12 264 15T154 92T84 209T60 357Q60 436 83 503T152 620T264 698T416 726Q470 726 515 717T605 686L587 635Z"  />
<glyph unicode="H" horiz-adv-x="685" d="M95 714H153V393H532V714H590V0H532V343H153V0H95V714Z"  />
<glyph unicode="I" horiz-adv-x="248" d="M95 714H153V0H95V714Z"  />
<glyph unicode="J" horiz-adv-x="301" d="M217 139Q217 106 210 79T188 31T144 0T75 -12Q61 -12 41 -11T7 -6V44Q21 41 38 40T67 38Q116 38 137 62T159 141V714H217V139Z"  />
<glyph unicode="K" horiz-adv-x="563" d="M540 714L217 372L556 0H479L155 359H153V0H95V714H153V380H155L464 714H540Z"  />
<glyph unicode="L" horiz-adv-x="470" d="M95 714H153V50H456V0H95V714Z"  />
<glyph unicode="M" horiz-adv-x="861" d="M428 54H430L667 714H766V0H711V669H709L465 0H390L152 669H150V0H95V714H195L428 54Z"  />
<glyph unicode="N" horiz-adv-x="691" d="M539 60H541V714H596V0H507L152 656H150V0H95V714H185L539 60Z"  />
<glyph unicode="O" horiz-adv-x="747" d="M684 356Q684 275 663 208T603 91T505 15T374 -12Q300 -12 242 15T145 92T84 208T63 356Q63 437 83 504T144 621T243 699T374 726Q448 726 506 699T603 622T663 505T684 356ZM626 356Q626 422 610 480T563 582T483 651T374 676Q313 676 265 651T185 581T137 479T121 356Q121 290 136 234T182 134T260 65T374 38Q437 38 484 63T563 131T610 232T626 356Z"  />
<glyph unicode="P" horiz-adv-x="593" d="M95 714H310Q356 714 398 705T474 674T525 613T544 519Q544 459 524 419T473 356T400 324T311 314H153V0H95V714ZM153 364H305Q343 364 373 370T430 392T471 439T486 516Q486 565 470 594T429 637T372 658T299 664H153V364Z"  />
<glyph unicode="Q" horiz-adv-x="747" d="M684 356Q684 243 644 157T527 27L654 -117H577L474 4Q451 -4 426 -8T374 -12Q300 -12 242 15T145 91T84 207T63 356Q63 437 83 504T144 621T242 698T374 726Q448 726 506 699T603 622T663 505T684 356ZM626 356Q626 422 610 481T563 583T484 651T374 676Q312 676 265 651T185 582T137 480T121 356Q121 290 136 233T184 132T263 63T374 38Q437 38 484 62T562 129T610 231T626 356Z"  />
<glyph unicode="R" horiz-adv-x="613" d="M95 714H326Q374 714 414 704T483 671T527 613T543 529Q542 460 505 418T407 362V360Q447 351 471 321T515 223Q533 163 548 111T582 0H520Q514 22 506 52T489 112T472 171T458 219Q448 253 436 275T406 310T363 329T298 335H153V0H95V714ZM153 385H312Q393 385 438 420T485 526Q485 567 471 595T434 637T381 658T316 664H153V385Z"  />
<glyph unicode="S" horiz-adv-x="533" d="M435 644Q396 660 358 668T279 676Q248 676 219 669T167 647T130 608T116 549Q116 519 126 497T156 457T205 424T274 393Q323 374 360 355T424 312T465 255T480 179Q480 129 462 93T412 33T339 -1T252 -12Q201 -12 147 0T48 33L64 85Q106 62 156 50T253 38Q290 38 321 46T374 72T409 114T422 175Q422 207 409 231T372 275T315 312T241 345Q197 363 163 382T106 425T71 478T58 546Q58 593 77 627T129 683T200 715T280 726Q325 726 367 719T451 694L435 644Z"  />
<glyph unicode="T" horiz-adv-x="530" d="M239 664H14V714H516V664H297V0H239V664Z"  />
<glyph unicode="U" horiz-adv-x="679" d="M596 219Q596 168 581 126T533 53T453 5T338 -12Q272 -12 224 5T145 54T98 127T83 219V714H141V223Q140 134 188 86T338 38Q390 38 428 51T490 89T526 148T538 223V714H596V219Z"  />
<glyph unicode="V" horiz-adv-x="606" d="M6 714H68L302 54H304L538 714H600L340 0H264L6 714Z"  />
<glyph unicode="W" horiz-adv-x="933" d="M466 668H464L307 0H222L42 714H104L264 54H266L421 714H511L668 54H670L830 714H891L710 0H626L466 668Z"  />
<glyph unicode="X" horiz-adv-x="586" d="M260 371L34 714H102L295 414L492 714H558L329 371L575 0H505L293 325L79 0H11L260 371Z"  />
<glyph unicode="Y" horiz-adv-x="587" d="M264 295L1 714H71L294 349L521 714H586L322 295V0H264V295Z"  />
<glyph unicode="Z" horiz-adv-x="561" d="M446 664H74V714H514V664L108 50H522V0H42V50L446 664Z"  />
<glyph unicode="[" horiz-adv-x="310" d="M237 757H131V-155H237V-195H81V797H237V757Z"  />
<glyph unicode="\" horiz-adv-x="493" d="M447 0H386L46 714H107L447 0Z"  />
<glyph unicode="]" horiz-adv-x="310" d="M73 -155H179V757H73V797H229V-195H73V-155Z"  />
<glyph unicode="^" horiz-adv-x="536" d="M399 299L268 636H266L136 299H78L240 696H295L458 299H399Z"  />
<glyph unicode="_" horiz-adv-x="465" d="M465 -99V-134H0V-99H465Z"  />
<glyph unicode="`" horiz-adv-x="467" d="M117 768H181L277 604H234L117 768Z"  />
<glyph unicode="a" horiz-adv-x="546" d="M403 346Q403 422 367 457T259 493Q227 493 191 486T121 463L108 511Q139 523 181 531T262 540Q358 540 409 493T460 351V127Q460 99 462 64T470 0H418Q413 24 411 51T408 101H406Q387 52 340 20T222 -12Q189 -12 159 -3T105 26T69 74T55 144Q55 198 82 233T155 287T265 313T403 321V346ZM378 278Q324 278 276 273T190 253T132 212T110 147Q110 96 140 66T226 35Q272 35 305 51T360 94T392 156T403 228V278H378Z"  />
<glyph unicode="b" horiz-adv-x="602" d="M145 0H90V735H147V424H149Q172 474 219 506T328 540Q379 540 419 519T487 461T529 373T544 265Q544 207 529 156T486 68T417 9T324 -12Q263 -11 217 20T147 99H145V0ZM487 265Q487 312 477 353T445 426T393 475T320 493Q278 493 246 476T191 429T156 357T144 265Q144 215 156 173T191 100T246 52T319 35Q361 35 392 53T445 102T476 175T487 265Z"  />
<glyph unicode="c" horiz-adv-x="475" d="M422 473Q396 484 372 488T319 493Q270 493 232 475T168 427T129 354T115 264Q115 217 128 176T167 103T230 53T318 35Q347 35 374 39T425 55L435 9Q406 -2 377 -7T317 -12Q254 -12 206 9T124 68T75 156T58 264Q58 323 75 373T126 460T209 519T318 540Q383 540 435 520L422 473Z"  />
<glyph unicode="d" horiz-adv-x="602" d="M455 735H512V0H457V104H455Q428 50 381 19T274 -12Q222 -12 182 9T115 68T73 156T58 265Q58 323 73 373T116 460T185 518T277 540Q336 540 381 510T453 429H455V735ZM115 265Q115 217 125 177T156 104T209 54T282 35Q323 35 356 52T411 99T446 172T458 264Q458 314 446 356T411 428T356 476T283 493Q241 493 210 475T157 425T126 352T115 265Z"  />
<glyph unicode="e" horiz-adv-x="557" d="M504 252H114Q115 210 128 169T167 99T231 53T320 36Q357 36 394 42T460 61L470 15Q439 3 399 -4T318 -11Q254 -11 205 10T123 69T74 158T57 269Q57 324 72 373T116 460T190 519T289 541Q345 541 386 522T453 469T491 388T504 284V252ZM451 304Q451 392 409 443T289 494Q247 494 214 478T160 434T127 371T114 299H451V304Z"  />
<glyph unicode="f" horiz-adv-x="310" d="M352 678Q333 683 313 685T275 688Q223 688 202 659T180 561V528H315V481H180V0H123V481H8V528H123V571Q123 609 130 639T156 690T203 723T274 735Q298 735 318 732T356 724L352 678Z"  />
<glyph unicode="g" horiz-adv-x="601" d="M513 25Q513 -30 496 -71T448 -140T373 -181T277 -195Q240 -195 197 -188T120 -167L132 -120Q166 -134 202 -141T277 -148Q368 -148 413 -103T458 28V117H456Q432 68 386 37T277 6Q225 6 184 26T115 83T73 168T58 273Q58 330 73 379T117 464T188 520T279 540Q341 540 386 510T456 430H458V528H513V25ZM115 273Q115 226 126 186T158 117T210 70T284 53Q325 53 357 69T412 114T447 183T459 273Q459 322 447 362T412 432T357 477T285 493Q243 493 211 476T158 430T126 360T115 273Z"  />
<glyph unicode="h" horiz-adv-x="590" d="M147 735V438H149Q172 487 218 513T320 540Q409 540 458 487T507 346V0H450V326Q450 363 443 395T419 448T375 481T308 493Q277 493 248 483T197 450T161 392T147 308V0H90V735H147Z"  />
<glyph unicode="i" horiz-adv-x="237" d="M147 528V0H90V528H147ZM151 727V658H86V727H151Z"  />
<glyph unicode="j" horiz-adv-x="238" d="M147 -49Q147 -123 114 -159T13 -195Q3 -195 -8 -194T-34 -191V-145Q-10 -148 7 -148Q54 -148 73 -122T90 -37V528H147V-49ZM151 727V658H86V727H151Z"  />
<glyph unicode="k" horiz-adv-x="487" d="M461 528L209 291L473 0H397L149 278H147V0H90V735H147V299H149L386 528H461Z"  />
<glyph unicode="l" horiz-adv-x="237" d="M147 735V0H90V735H147Z"  />
<glyph unicode="m" horiz-adv-x="911" d="M145 528V436H147Q169 486 214 513T313 540Q438 540 473 441H475Q501 493 546 516T648 540Q694 540 728 526T784 486T817 425T828 346V0H771V324Q771 361 765 391T743 444T701 480T635 493Q607 493 581 483T534 454T501 405T488 334V0H431V333Q431 370 425 399T404 450T364 482T300 493Q271 493 244 483T194 450T160 393T147 314V0H90V528H145Z"  />
<glyph unicode="n" horiz-adv-x="590" d="M145 528V438H147Q170 486 216 513T320 540Q409 540 458 487T507 346V0H450V326Q450 363 443 394T419 447T375 481T308 493Q277 493 249 483T197 450T161 392T147 308V0H90V528H145Z"  />
<glyph unicode="o" horiz-adv-x="591" d="M533 265Q533 202 517 152T471 64T396 8T296 -12Q240 -12 196 7T121 63T74 151T58 265Q58 328 74 379T120 465T195 520T296 540Q352 540 396 520T471 465T517 379T533 265ZM476 265Q476 314 465 356T432 429T376 476T296 493Q252 493 217 476T160 427T126 355T115 265Q115 216 126 175T159 102T216 53T296 35Q342 35 376 52T432 100T465 173T476 265Z"  />
<glyph unicode="p" horiz-adv-x="602" d="M147 -195H90V528H145V424H147Q169 472 218 506T328 540Q379 540 419 519T487 460T529 372T544 264Q544 206 529 155T486 68T417 10T324 -12Q265 -12 220 19T149 99H147V-195ZM487 264Q487 312 477 353T445 426T393 475T320 493Q280 493 247 476T191 429T156 356T144 264Q144 214 156 173T191 100T246 52T319 35Q361 35 392 53T445 102T476 175T487 264Z"  />
<glyph unicode="q" horiz-adv-x="602" d="M457 528H512V-195H455V104H453Q427 52 381 20T274 -12Q222 -12 182 9T114 68T73 156T58 265Q58 323 73 373T116 460T185 518T277 540Q338 540 383 511T455 429H457V528ZM115 265Q115 217 125 176T157 103T209 53T282 35Q323 35 356 52T411 99T446 172T458 264Q458 314 446 356T411 428T355 476T283 493Q241 493 210 475T157 425T126 351T115 265Z"  />
<glyph unicode="r" horiz-adv-x="339" d="M327 490Q309 493 286 493Q224 493 186 446T147 310V0H90V528H145V439H147Q164 487 202 513T292 540Q301 540 310 540T330 538L327 490Z"  />
<glyph unicode="s" horiz-adv-x="456" d="M363 466Q334 480 301 486T236 493Q213 493 193 489T155 474T128 447T118 405Q118 384 125 368T148 339T184 316T237 294Q273 281 302 267T354 235T388 192T400 134Q400 95 385 67T346 22T288 -4T219 -12Q174 -12 130 -2T51 26L67 72Q102 55 142 45T220 35Q278 35 310 58T343 131Q343 153 333 170T306 201T264 226T208 250Q136 275 99 309T61 400Q61 436 76 462T117 506T173 532T236 540Q274 540 310 533T378 511L363 466Z"  />
<glyph unicode="t" horiz-adv-x="331" d="M16 528H115V658H172V528H300V481H172V129Q172 102 175 85T187 57T210 44T247 40Q267 40 278 41T303 44V0Q290 -2 272 -4T233 -7Q166 -7 141 23T115 125V481H16V528Z"  />
<glyph unicode="u" horiz-adv-x="590" d="M445 0V90H443Q420 42 374 15T270 -12Q180 -12 132 41T83 182V528H140V202Q140 164 147 134T171 81T215 47T282 35Q313 35 342 45T393 78T429 136T443 220V528H500V0H445Z"  />
<glyph unicode="v" horiz-adv-x="484" d="M6 528H68L242 50H244L417 528H478L276 0H208L6 528Z"  />
<glyph unicode="w" horiz-adv-x="779" d="M391 479H389L256 0H180L24 528H86L218 50H220L350 528H430L561 50H563L694 528H755L598 0H522L391 479Z"  />
<glyph unicode="x" horiz-adv-x="478" d="M15 0L205 274L32 528H98L241 311L386 528H450L276 275L463 0H397L239 236L80 0H15Z"  />
<glyph unicode="y" horiz-adv-x="485" d="M246 74H248L418 528H479L194 -195H134L215 8L7 528H69L246 74Z"  />
<glyph unicode="z" horiz-adv-x="479" d="M357 481H65V528H422V481L111 47H433V0H46V47L357 481Z"  />
<glyph unicode="{" horiz-adv-x="311" d="M14 323Q41 326 56 336T80 363T91 405T94 463V653Q94 797 208 797H254V757H220Q181 757 163 734T144 655V461Q144 387 126 352T59 303V301Q83 293 99 281T125 251T139 206T144 142V-52Q144 -109 163 -132T220 -155H254V-195H208Q94 -195 94 -50V139Q94 172 92 197T81 239T56 266T14 279V323Z"  />
<glyph unicode="|" horiz-adv-x="465" d="M255 735V-195H210V735H255Z"  />
<glyph unicode="}" horiz-adv-x="310" d="M296 279Q272 275 255 266T230 239T219 197T216 138V-51Q216 -195 102 -195H56V-155H90Q128 -155 147 -132T166 -53V141Q166 178 170 204T185 250T211 280T250 299V301Q226 309 211 321T185 351T171 396T166 460V654Q166 711 147 734T90 757H56V797H102Q216 797 216 652V463Q216 429 218 405T229 363T253 336T296 323V279Z"  />
<glyph unicode="~" horiz-adv-x="536" d="M491 305Q468 285 438 274T370 262Q337 263 312 272T263 293T213 314T158 324Q122 324 96 311T45 276V325Q68 345 98 356T166 368Q197 368 223 359T273 337T322 316T378 306Q414 306 441 319T491 354V305Z"  />
<glyph unicode="&#xA0;" horiz-adv-x="260" />
<glyph unicode="&#xA1;" horiz-adv-x="305" d="M188 450H116V528H188V450ZM186 -186H117L129 341H174L186 -186Z"  />
<glyph unicode="&#xA2;" horiz-adv-x="493" d="M282 -9Q229 -3 188 20T120 79T78 161T64 263Q64 318 78 364T121 447T189 507T282 536V600H327V540Q393 539 441 521L427 474Q406 482 381 487T327 493V34Q360 35 383 39T432 55L442 8Q388 -11 327 -12V-67H282V-9ZM122 263Q122 221 132 184T161 116T211 66T282 38V489Q243 482 212 462T162 411T132 343T122 263Z"  />
<glyph unicode="&#xA3;" horiz-adv-x="588" d="M483 646Q460 660 434 668T375 676Q339 676 313 665T269 633T244 584T236 522V393H394V351H236V50H530V0H66V50H178V351H74V393H178V527Q178 572 191 608T229 671T290 711T375 726Q417 726 447 718T503 695L483 646Z"  />
<glyph unicode="&#xA4;" horiz-adv-x="534" d="M268 212Q316 212 347 244T378 325Q378 374 347 405T268 437Q220 437 189 406T157 325Q157 275 188 244T268 212ZM85 546L172 460Q192 474 217 481T268 489Q295 489 318 482T363 460L450 546L488 508L402 422Q416 402 424 378T433 325Q433 269 403 228L488 142L449 104L363 188Q323 159 268 159Q239 159 215 167T171 190L84 104L46 142L132 228Q102 267 102 325Q102 380 131 421L46 507L85 546Z"  />
<glyph unicode="&#xA5;" horiz-adv-x="575" d="M260 193V298H82V340H245L35 714H97L291 355L482 714H542L333 340H495V298H317V193H495V151H317V0H260V151H82V193H260Z"  />
<glyph unicode="&#xA6;" horiz-adv-x="465" d="M255 172V-195H209V172H255ZM209 367V735H255V367H209Z"  />
<glyph unicode="&#xA7;" horiz-adv-x="538" d="M465 268Q465 219 439 187T365 135Q405 112 427 80T450 2Q450 -43 433 -73T389 -122T326 -149T251 -158Q213 -158 171 -149T100 -125L118 -76Q149 -90 185 -99T254 -108Q281 -108 306 -103T350 -86T382 -52T394 0Q394 21 386 38T360 72T312 104T240 140Q205 156 176 172T126 207T94 252T82 310Q82 360 111 392T190 441Q156 460 132 492T107 571Q107 614 123 644T167 692T228 718T298 726Q335 726 369 719T422 704L406 655Q389 663 358 669T297 676Q269 676 245 670T202 652T174 621T163 573Q163 529 198 500T306 438Q383 404 424 366T465 268ZM232 415Q213 410 196 402T165 380T143 350T135 313Q135 292 142 276T164 246T202 217T259 188L324 158Q363 169 388 195T413 262Q413 306 382 333T293 386L232 415Z"  />
<glyph unicode="&#xA8;" horiz-adv-x="467" d="M179 714V641H117V714H179ZM349 714V641H288V714H349Z"  />
<glyph unicode="&#xA9;" horiz-adv-x="804" d="M79 356Q79 288 103 229T170 125T273 55T403 30Q473 30 532 55T634 124T701 228T725 356Q725 425 701 484T634 589T532 659T403 685Q335 685 275 660T171 589T103 484T79 356ZM37 356Q37 433 64 500T141 616T257 694T403 723Q481 723 548 695T664 617T740 500T767 356Q767 279 740 213T665 98T550 20T403 -9Q324 -9 257 19T141 97T65 212T37 356ZM507 523Q489 531 467 536T424 541Q382 541 351 527T300 489T270 431T260 358Q260 320 270 288T300 230T351 190T421 176Q449 176 474 181T515 194L525 153Q503 143 475 138T416 133Q366 133 328 149T263 196T222 267T208 358Q208 407 222 448T262 520T328 566T420 583Q449 583 474 579T519 565L507 523Z"  />
<glyph unicode="&#xAA;" horiz-adv-x="339" d="M241 580Q241 658 162 658Q120 658 75 638L66 678Q86 686 112 691T165 697Q290 697 289 582V449Q289 431 290 410T294 373H249Q247 384 246 398T245 423H243Q229 397 202 382T134 366Q115 366 98 371T66 387T43 416T34 459Q34 492 49 513T94 546T159 562T241 567V580ZM229 533Q199 533 172 530T125 518T94 496T82 462Q82 433 98 418T145 403Q170 403 188 412T218 437T234 471T240 510V533H229Z"  />
<glyph unicode="&#xAB;" horiz-adv-x="509" d="M134 298L254 115H200L81 295V300L201 481H254L134 298ZM309 298L429 115H374L255 295V300L376 481H429L309 298Z"  />
<glyph unicode="&#xAC;" horiz-adv-x="536" d="M45 396V440H491V189H447V396H45Z"  />
<glyph unicode="&#xAD;" horiz-adv-x="380" d="M74 325H306V277H74V325Z"  />
<glyph unicode="&#xAE;" horiz-adv-x="503" d="M41 525Q41 569 56 607T100 673T167 718T252 734Q298 734 336 718T402 674T445 607T461 525Q461 481 446 443T402 376T336 331T252 315Q206 315 167 331T100 375T57 442T41 525ZM68 525Q68 487 81 454T119 395T177 356T252 341Q292 341 325 355T383 395T420 453T434 525Q434 563 421 596T382 654T325 693T252 707Q212 707 179 693T120 654T82 596T68 525ZM174 647H261Q294 647 315 634T337 585Q337 563 326 548T293 525Q305 520 313 511T327 481L351 404H317L297 473Q291 495 278 503T244 511H207V404H174V647ZM207 537H252Q274 537 289 547T304 583Q302 612 284 617T255 621H207V537Z"  />
<glyph unicode="&#xAF;" horiz-adv-x="467" d="M357 653H110V698H357V653Z"  />
<glyph unicode="&#xB0;" horiz-adv-x="365" d="M184 725Q211 725 234 715T276 687T305 645T315 593Q315 565 305 541T277 499T235 471T183 461Q155 461 131 471T89 499T61 541T50 594Q50 622 60 646T89 687T131 715T184 725ZM182 689Q141 688 114 661T87 593Q87 552 114 525T183 497Q224 497 251 524T278 594Q278 635 250 662T182 689Z"  />
<glyph unicode="&#xB1;" horiz-adv-x="536" d="M45 81V125H491V81H45ZM245 359H45V403H245V565H291V403H491V359H291V197H245V359Z"  />
<glyph unicode="&#xB2;" horiz-adv-x="379" d="M324 428H53V473Q120 534 161 575T226 646T258 698T266 743Q266 780 243 801T182 822Q154 822 129 812T80 782L60 818Q114 864 185 864Q244 864 280 833T316 744Q316 714 306 688T272 631T209 563T111 472V471H324V428Z"  />
<glyph unicode="&#xB3;" horiz-adv-x="379" d="M111 669H161Q209 669 237 689T265 749Q265 784 241 803T178 822Q153 822 128 816T77 795L63 835Q89 850 120 857T181 864Q242 864 278 835T315 754Q315 675 233 652V651Q275 642 301 615T327 546Q327 488 286 455T178 421Q141 421 109 428T50 450L66 491Q116 463 177 463Q221 463 249 483T277 546Q277 568 268 584T242 610T205 624T161 629H111V669Z"  />
<glyph unicode="&#xB4;" horiz-adv-x="467" d="M234 604H191L288 768H351L234 604Z"  />
<glyph unicode="&#xB5;" horiz-adv-x="621" d="M90 528H147V202Q147 164 154 133T178 81T222 47T289 35Q320 35 349 45T400 78T436 136T450 220V528H507V100Q507 66 517 53T552 40Q558 40 564 40T576 42V-3Q568 -5 559 -6T539 -7Q497 -7 475 17T453 93H451Q428 42 381 15T277 -12Q233 -12 200 3T150 48H148V-195H90V528Z"  />
<glyph unicode="&#xB6;" horiz-adv-x="543" d="M493 -117H447V675H301V-117H254V324Q208 324 170 338T105 377T62 436T46 510Q47 608 108 661T273 714H493V-117Z"  />
<glyph unicode="&#xB7;" horiz-adv-x="264" d="M94 343H169V263H94V343Z"  />
<glyph unicode="&#xB8;" horiz-adv-x="467" d="M201 -64Q213 -61 230 -61Q265 -61 287 -79T310 -130Q310 -151 302 -166T279 -192T245 -207T204 -212Q174 -212 149 -207L153 -173Q164 -175 176 -176T199 -177Q226 -177 245 -168T267 -132Q267 -112 252 -103T209 -94Q201 -94 190 -94T162 -97L177 8H215L201 -64Z"  />
<glyph unicode="&#xB9;" horiz-adv-x="379" d="M231 428H180V807L90 751L71 788L182 857H231V428Z"  />
<glyph unicode="&#xBA;" horiz-adv-x="368" d="M333 532Q333 457 294 412T184 366Q115 366 75 411T35 532Q35 607 75 652T184 697Q254 697 293 652T333 532ZM283 532Q283 590 258 624T184 658Q135 658 110 623T85 532Q85 476 111 441T184 405Q235 406 259 441T283 532Z"  />
<glyph unicode="&#xBB;" horiz-adv-x="509" d="M375 298L255 481H310L429 300V295L307 115H255L375 298ZM201 298L81 481H135L254 300V295L133 115H81L201 298Z"  />
<glyph unicode="&#xBC;" horiz-adv-x="883" d="M231 285H180V664L90 608L71 645L182 714H231V285ZM254 0H210L624 714H669L254 0ZM743 147H805V104H743V0H695V104H493V151L679 429H743V147ZM695 381H694L540 147H695V381Z"  />
<glyph unicode="&#xBD;" horiz-adv-x="883" d="M231 285H180V664L90 608L71 645L182 714H231V285ZM813 0H542V45Q609 106 650 147T715 218T747 270T755 315Q755 352 732 373T671 394Q643 394 618 384T569 354L549 390Q603 436 674 436Q733 436 769 405T805 316Q805 286 795 260T761 203T698 135T600 44V43H813V0ZM254 0H210L624 714H669L254 0Z"  />
<glyph unicode="&#xBE;" horiz-adv-x="883" d="M111 526H161Q209 526 237 546T265 606Q265 641 241 660T178 679Q153 679 128 673T77 652L63 692Q89 707 120 714T181 721Q242 721 278 692T315 611Q315 532 233 509V508Q275 499 301 472T327 403Q327 345 286 312T178 278Q141 278 109 285T50 307L66 348Q116 320 177 320Q221 320 249 340T277 403Q277 425 268 441T242 467T205 481T161 486H111V526ZM743 147H805V104H743V0H695V104H493V151L679 429H743V147ZM695 381H694L540 147H695V381ZM254 0H210L624 714H669L254 0Z"  />
<glyph unicode="&#xBF;" horiz-adv-x="462" d="M290 526V448H214V526H290ZM226 364H279V328Q279 296 275 271T262 224T238 183T202 146L164 112Q133 85 112 50T91 -27Q91 -61 102 -84T134 -122T180 -143T237 -150Q310 -150 378 -110L396 -156Q361 -176 321 -188T232 -200Q193 -200 157 -191T94 -162T50 -109T33 -29Q33 22 55 63T115 137L150 168Q171 187 185 203T209 238T222 278T226 332V364Z"  />
<glyph unicode="&#xC0;" horiz-adv-x="642" d="M68 0H6L283 714H363L636 0H573L484 227H156L68 0ZM172 277H469L322 670L172 277ZM278 904L362 770H317L211 904H278Z"  />
<glyph unicode="&#xC1;" horiz-adv-x="642" d="M68 0H6L283 714H363L636 0H573L484 227H156L68 0ZM172 277H469L322 670L172 277ZM445 904L337 770H293L378 904H445Z"  />
<glyph unicode="&#xC2;" horiz-adv-x="642" d="M68 0H6L283 714H363L636 0H573L484 227H156L68 0ZM172 277H469L322 670L172 277ZM424 762L322 873L221 762H172L292 908H352L473 762H424Z"  />
<glyph unicode="&#xC3;" horiz-adv-x="642" d="M68 0H6L283 714H363L636 0H573L484 227H156L68 0ZM172 277H469L322 670L172 277ZM333 856Q354 840 368 832T396 824Q436 824 439 891H482Q480 841 460 811T398 780Q375 780 358 788T319 814Q299 831 285 839T256 847Q217 847 213 780H170Q172 828 193 859T255 891Q277 891 294 882T333 856Z"  />
<glyph unicode="&#xC4;" horiz-adv-x="642" d="M68 0H6L283 714H363L636 0H573L484 227H156L68 0ZM172 277H469L322 670L172 277ZM268 876V803H206V876H268ZM438 876V803H377V876H438Z"  />
<glyph unicode="&#xC5;" horiz-adv-x="642" d="M68 0H6L283 714H363L636 0H573L484 227H156L68 0ZM172 277H469L322 670L172 277ZM323 940Q343 940 360 932T390 911T410 880T418 843Q418 803 391 776T323 748Q282 748 254 776T226 843Q226 884 254 912T323 940ZM322 907Q296 907 277 889T258 843Q258 817 277 799T323 780Q349 780 367 798T386 843Q385 871 367 889T322 907Z"  />
<glyph unicode="&#xC6;" horiz-adv-x="856" d="M67 0H2L376 714H795V664H474V393H772V343H474V50H804V0H416V207H175L67 0ZM199 257H416V669H414L199 257Z"  />
<glyph unicode="&#xC7;" horiz-adv-x="605" d="M549 644Q514 660 479 668T404 676Q334 676 280 652T190 583T136 481T118 354Q118 289 136 232T189 131T278 63T402 38Q449 38 489 48T558 75L575 28Q500 -12 399 -12H382L372 -64Q384 -61 401 -61Q436 -61 458 -78T481 -130Q481 -151 473 -166T450 -191T416 -207T375 -212Q345 -212 320 -207L324 -173Q335 -175 347 -176T370 -177Q399 -177 418 -167T438 -132Q438 -112 423 -103T380 -94Q372 -94 363 -94T333 -97L345 -8Q276 1 223 31T134 109T79 219T60 355Q60 432 81 500T147 619T257 698T403 726Q448 726 491 717T567 691L549 644Z"  />
<glyph unicode="&#xC8;" horiz-adv-x="536" d="M95 714H475V664H153V393H452V343H153V50H484V0H95V714ZM243 904L327 770H282L176 904H243Z"  />
<glyph unicode="&#xC9;" horiz-adv-x="536" d="M95 714H475V664H153V393H452V343H153V50H484V0H95V714ZM408 904L300 770H256L341 904H408Z"  />
<glyph unicode="&#xCA;" horiz-adv-x="536" d="M95 714H475V664H153V393H452V343H153V50H484V0H95V714ZM389 762L287 873L186 762H137L257 908H317L438 762H389Z"  />
<glyph unicode="&#xCB;" horiz-adv-x="536" d="M95 714H475V664H153V393H452V343H153V50H484V0H95V714ZM237 876V803H175V876H237ZM407 876V803H346V876H407Z"  />
<glyph unicode="&#xCC;" horiz-adv-x="248" d="M95 714H153V0H95V714ZM69 904L153 770H108L2 904H69Z"  />
<glyph unicode="&#xCD;" horiz-adv-x="248" d="M95 714H153V0H95V714ZM253 904L145 770H101L186 904H253Z"  />
<glyph unicode="&#xCE;" horiz-adv-x="248" d="M95 714H153V0H95V714ZM227 762L125 873L24 762H-25L95 908H155L276 762H227Z"  />
<glyph unicode="&#xCF;" horiz-adv-x="248" d="M95 714H153V0H95V714ZM72 876V803H10V876H72ZM242 876V803H181V876H242Z"  />
<glyph unicode="&#xD0;" horiz-adv-x="687" d="M153 349V50H267Q417 50 494 130T572 357Q572 504 494 584T267 664H153V388H290V349H153ZM95 388V714H275Q358 714 424 691T535 622T605 511T630 357Q630 270 606 204T536 92T424 24T275 0H95V349H21V388H95Z"  />
<glyph unicode="&#xD1;" horiz-adv-x="691" d="M539 60H541V714H596V0H507L152 656H150V0H95V714H185L539 60ZM354 856Q375 840 389 832T417 824Q457 824 460 891H503Q501 841 481 811T419 780Q396 780 379 788T340 814Q320 831 306 839T277 847Q238 847 234 780H191Q193 828 214 859T276 891Q298 891 315 882T354 856Z"  />
<glyph unicode="&#xD2;" horiz-adv-x="747" d="M684 356Q684 275 663 208T603 91T505 15T374 -12Q300 -12 242 15T145 92T84 208T63 356Q63 437 83 504T144 621T243 699T374 726Q448 726 506 699T603 622T663 505T684 356ZM626 356Q626 422 610 480T563 582T483 651T374 676Q313 676 265 651T185 581T137 479T121 356Q121 290 136 234T182 134T260 65T374 38Q437 38 484 63T563 131T610 232T626 356ZM327 904L411 770H366L260 904H327Z"  />
<glyph unicode="&#xD3;" horiz-adv-x="747" d="M684 356Q684 275 663 208T603 91T505 15T374 -12Q300 -12 242 15T145 92T84 208T63 356Q63 437 83 504T144 621T243 699T374 726Q448 726 506 699T603 622T663 505T684 356ZM626 356Q626 422 610 480T563 582T483 651T374 676Q313 676 265 651T185 581T137 479T121 356Q121 290 136 234T182 134T260 65T374 38Q437 38 484 63T563 131T610 232T626 356ZM480 904L372 770H328L413 904H480Z"  />
<glyph unicode="&#xD4;" horiz-adv-x="747" d="M684 356Q684 275 663 208T603 91T505 15T374 -12Q300 -12 242 15T145 92T84 208T63 356Q63 437 83 504T144 621T243 699T374 726Q448 726 506 699T603 622T663 505T684 356ZM626 356Q626 422 610 480T563 582T483 651T374 676Q313 676 265 651T185 581T137 479T121 356Q121 290 136 234T182 134T260 65T374 38Q437 38 484 63T563 131T610 232T626 356ZM475 762L373 873L272 762H223L343 908H403L524 762H475Z"  />
<glyph unicode="&#xD5;" horiz-adv-x="747" d="M684 356Q684 275 663 208T603 91T505 15T374 -12Q300 -12 242 15T145 92T84 208T63 356Q63 437 83 504T144 621T243 699T374 726Q448 726 506 699T603 622T663 505T684 356ZM626 356Q626 422 610 480T563 582T483 651T374 676Q313 676 265 651T185 581T137 479T121 356Q121 290 136 234T182 134T260 65T374 38Q437 38 484 63T563 131T610 232T626 356ZM380 856Q401 840 415 832T443 824Q483 824 486 891H529Q527 841 507 811T445 780Q422 780 405 788T366 814Q346 831 332 839T303 847Q264 847 260 780H217Q219 828 240 859T302 891Q324 891 341 882T380 856Z"  />
<glyph unicode="&#xD6;" horiz-adv-x="747" d="M684 356Q684 275 663 208T603 91T505 15T374 -12Q300 -12 242 15T145 92T84 208T63 356Q63 437 83 504T144 621T243 699T374 726Q448 726 506 699T603 622T663 505T684 356ZM626 356Q626 422 610 480T563 582T483 651T374 676Q313 676 265 651T185 581T137 479T121 356Q121 290 136 234T182 134T260 65T374 38Q437 38 484 63T563 131T610 232T626 356ZM319 876V803H257V876H319ZM489 876V803H428V876H489Z"  />
<glyph unicode="&#xD7;" horiz-adv-x="536" d="M235 308L43 501L76 533L267 340L459 533L492 501L299 308L492 115L460 83L267 276L75 83L43 115L235 308Z"  />
<glyph unicode="&#xD8;" horiz-adv-x="747" d="M72 0L143 92Q104 140 84 207T63 356Q63 437 83 504T143 621T241 698T374 726Q437 726 487 707T575 652L637 732L669 707L603 622Q643 573 663 505T684 356Q684 275 663 208T603 92T505 16T374 -12Q311 -12 260 7T170 63L103 -24L72 0ZM626 356Q626 420 611 476T567 575L204 107Q235 75 277 57T374 38Q437 38 484 63T562 131T610 232T626 356ZM121 356Q121 293 135 237T179 138L541 608Q510 640 469 658T374 676Q313 676 265 651T185 582T137 480T121 356Z"  />
<glyph unicode="&#xD9;" horiz-adv-x="679" d="M596 219Q596 168 581 126T533 53T453 5T338 -12Q272 -12 224 5T145 54T98 127T83 219V714H141V223Q140 134 188 86T338 38Q390 38 428 51T490 89T526 148T538 223V714H596V219ZM288 904L372 770H327L221 904H288Z"  />
<glyph unicode="&#xDA;" horiz-adv-x="679" d="M596 219Q596 168 581 126T533 53T453 5T338 -12Q272 -12 224 5T145 54T98 127T83 219V714H141V223Q140 134 188 86T338 38Q390 38 428 51T490 89T526 148T538 223V714H596V219ZM451 904L343 770H299L384 904H451Z"  />
<glyph unicode="&#xDB;" horiz-adv-x="679" d="M596 219Q596 168 581 126T533 53T453 5T338 -12Q272 -12 224 5T145 54T98 127T83 219V714H141V223Q140 134 188 86T338 38Q390 38 428 51T490 89T526 148T538 223V714H596V219ZM439 762L337 873L236 762H187L307 908H367L488 762H439Z"  />
<glyph unicode="&#xDC;" horiz-adv-x="679" d="M596 219Q596 168 581 126T533 53T453 5T338 -12Q272 -12 224 5T145 54T98 127T83 219V714H141V223Q140 134 188 86T338 38Q390 38 428 51T490 89T526 148T538 223V714H596V219ZM285 876V803H223V876H285ZM455 876V803H394V876H455Z"  />
<glyph unicode="&#xDD;" horiz-adv-x="587" d="M264 295L1 714H71L294 349L521 714H586L322 295V0H264V295ZM416 904L308 770H264L349 904H416Z"  />
<glyph unicode="&#xDE;" horiz-adv-x="598" d="M95 714H153V584H313Q359 584 399 575T473 544T525 483T544 387Q544 327 525 288T475 225T401 193T314 183H153V0H95V714ZM153 233H308Q347 233 377 239T431 261T470 306T486 384Q486 431 471 460T429 506T370 528T301 534H153V233Z"  />
<glyph unicode="&#xDF;" horiz-adv-x="649" d="M330 735Q377 735 417 723T486 688T531 628T548 544Q548 471 503 428T386 375V373Q423 370 458 359T521 327T566 272T583 190Q583 136 565 98T517 35T448 0T367 -12Q337 -12 302 -6T241 11L252 57Q276 46 308 41T367 35Q439 35 482 73T526 187Q526 220 514 248T476 298T408 331T304 343V393Q395 398 443 434T491 539Q491 576 479 604T444 650T393 678T329 688Q290 688 256 677T198 640T160 576T147 480V0H90V491Q90 559 110 605T164 681T240 722T330 735Z"  />
<glyph unicode="&#xE0;" horiz-adv-x="546" d="M403 346Q403 422 367 457T259 493Q227 493 191 486T121 463L108 511Q139 523 181 531T262 540Q358 540 409 493T460 351V127Q460 99 462 64T470 0H418Q413 24 411 51T408 101H406Q387 52 340 20T222 -12Q189 -12 159 -3T105 26T69 74T55 144Q55 198 82 233T155 287T265 313T403 321V346ZM378 278Q324 278 276 273T190 253T132 212T110 147Q110 96 140 66T226 35Q272 35 305 51T360 94T392 156T403 228V278H378ZM162 768H226L322 604H279L162 768Z"  />
<glyph unicode="&#xE1;" horiz-adv-x="546" d="M403 346Q403 422 367 457T259 493Q227 493 191 486T121 463L108 511Q139 523 181 531T262 540Q358 540 409 493T460 351V127Q460 99 462 64T470 0H418Q413 24 411 51T408 101H406Q387 52 340 20T222 -12Q189 -12 159 -3T105 26T69 74T55 144Q55 198 82 233T155 287T265 313T403 321V346ZM378 278Q324 278 276 273T190 253T132 212T110 147Q110 96 140 66T226 35Q272 35 305 51T360 94T392 156T403 228V278H378ZM271 604H228L325 768H388L271 604Z"  />
<glyph unicode="&#xE2;" horiz-adv-x="546" d="M403 346Q403 422 367 457T259 493Q227 493 191 486T121 463L108 511Q139 523 181 531T262 540Q358 540 409 493T460 351V127Q460 99 462 64T470 0H418Q413 24 411 51T408 101H406Q387 52 340 20T222 -12Q189 -12 159 -3T105 26T69 74T55 144Q55 198 82 233T155 287T265 313T403 321V346ZM378 278Q324 278 276 273T190 253T132 212T110 147Q110 96 140 66T226 35Q272 35 305 51T360 94T392 156T403 228V278H378ZM377 604L275 733L174 604H125L245 768H305L426 604H377Z"  />
<glyph unicode="&#xE3;" horiz-adv-x="546" d="M403 346Q403 422 367 457T259 493Q227 493 191 486T121 463L108 511Q139 523 181 531T262 540Q358 540 409 493T460 351V127Q460 99 462 64T470 0H418Q413 24 411 51T408 101H406Q387 52 340 20T222 -12Q189 -12 159 -3T105 26T69 74T55 144Q55 198 82 233T155 287T265 313T403 321V346ZM378 278Q324 278 276 273T190 253T132 212T110 147Q110 96 140 66T226 35Q272 35 305 51T360 94T392 156T403 228V278H378ZM281 703Q302 687 316 679T344 670Q384 670 387 737H430Q428 687 408 657T346 627Q324 627 307 635T267 661Q247 677 233 685T204 694Q164 694 161 627H118Q120 675 141 706T203 737Q225 737 242 729T281 703Z"  />
<glyph unicode="&#xE4;" horiz-adv-x="546" d="M403 346Q403 422 367 457T259 493Q227 493 191 486T121 463L108 511Q139 523 181 531T262 540Q358 540 409 493T460 351V127Q460 99 462 64T470 0H418Q413 24 411 51T408 101H406Q387 52 340 20T222 -12Q189 -12 159 -3T105 26T69 74T55 144Q55 198 82 233T155 287T265 313T403 321V346ZM378 278Q324 278 276 273T190 253T132 212T110 147Q110 96 140 66T226 35Q272 35 305 51T360 94T392 156T403 228V278H378ZM223 714V641H161V714H223ZM393 714V641H332V714H393Z"  />
<glyph unicode="&#xE5;" horiz-adv-x="546" d="M403 346Q403 422 367 457T259 493Q227 493 191 486T121 463L108 511Q139 523 181 531T262 540Q358 540 409 493T460 351V127Q460 99 462 64T470 0H418Q413 24 411 51T408 101H406Q387 52 340 20T222 -12Q189 -12 159 -3T105 26T69 74T55 144Q55 198 82 233T155 287T265 313T403 321V346ZM378 278Q324 278 276 273T190 253T132 212T110 147Q110 96 140 66T226 35Q272 35 305 51T360 94T392 156T403 228V278H378ZM280 787Q300 787 317 780T347 759T367 728T375 691Q375 651 348 623T280 595Q239 595 212 623T183 691Q183 731 211 759T280 787ZM279 755Q253 755 234 736T215 691Q215 664 234 646T280 627Q306 627 324 645T343 691Q343 718 325 736T279 755Z"  />
<glyph unicode="&#xE6;" horiz-adv-x="898" d="M660 35Q697 35 734 42T801 60L811 15Q780 1 740 -5T658 -12Q569 -12 514 29T432 141H430Q413 72 360 30T223 -12Q189 -12 159 -3T105 25T69 73T55 141Q55 195 80 228T154 280T264 304T403 311V346Q403 422 367 457T259 493Q227 493 192 486T121 463L108 511Q139 523 181 531T262 540Q336 540 381 512T443 423H445Q467 474 517 507T632 540Q734 540 789 476T845 297V263H457Q458 223 470 181T507 105T571 53T660 35ZM378 268Q322 268 274 263T188 245T131 207T110 144Q110 91 142 63T231 35Q277 35 310 52T363 98T393 161T403 233V268H378ZM632 493Q589 493 558 478T505 437T473 379T458 309H792V315Q792 353 782 385T752 442T702 479T632 493Z"  />
<glyph unicode="&#xE7;" horiz-adv-x="475" d="M422 473Q395 484 371 488T319 493Q271 493 232 475T168 426T129 354T115 264Q115 217 128 176T167 103T230 53T318 35Q347 35 372 39T425 55L435 9Q406 -2 377 -7T317 -12Q310 -12 305 -12T292 -11L282 -64Q294 -61 311 -61Q346 -61 368 -78T391 -130Q391 -151 383 -166T360 -191T326 -207T285 -212Q255 -212 230 -207L234 -173Q245 -175 256 -176T280 -177Q309 -177 328 -167T348 -132Q348 -112 333 -103T290 -94Q282 -94 269 -94T243 -97L256 -6Q207 4 170 28T108 88T71 168T58 264Q58 323 76 373T127 461T208 519T318 540Q383 540 435 520L422 473Z"  />
<glyph unicode="&#xE8;" horiz-adv-x="557" d="M504 252H114Q115 210 128 169T167 99T231 53T320 36Q357 36 394 42T460 61L470 15Q439 3 399 -4T318 -11Q254 -11 205 10T123 69T74 158T57 269Q57 324 72 373T116 460T190 519T289 541Q345 541 386 522T453 469T491 388T504 284V252ZM451 304Q451 392 409 443T289 494Q247 494 214 478T160 434T127 371T114 299H451V304ZM177 768H241L337 604H294L177 768Z"  />
<glyph unicode="&#xE9;" horiz-adv-x="557" d="M504 252H114Q115 210 128 169T167 99T231 53T320 36Q357 36 394 42T460 61L470 15Q439 3 399 -4T318 -11Q254 -11 205 10T123 69T74 158T57 269Q57 324 72 373T116 460T190 519T289 541Q345 541 386 522T453 469T491 388T504 284V252ZM451 304Q451 392 409 443T289 494Q247 494 214 478T160 434T127 371T114 299H451V304ZM300 604H257L354 768H417L300 604Z"  />
<glyph unicode="&#xEA;" horiz-adv-x="557" d="M504 252H114Q115 210 128 169T167 99T231 53T320 36Q357 36 394 42T460 61L470 15Q439 3 399 -4T318 -11Q254 -11 205 10T123 69T74 158T57 269Q57 324 72 373T116 460T190 519T289 541Q345 541 386 522T453 469T491 388T504 284V252ZM451 304Q451 392 409 443T289 494Q247 494 214 478T160 434T127 371T114 299H451V304ZM398 604L296 733L195 604H146L266 768H326L447 604H398Z"  />
<glyph unicode="&#xEB;" horiz-adv-x="557" d="M504 252H114Q115 210 128 169T167 99T231 53T320 36Q357 36 394 42T460 61L470 15Q439 3 399 -4T318 -11Q254 -11 205 10T123 69T74 158T57 269Q57 324 72 373T116 460T190 519T289 541Q345 541 386 522T453 469T491 388T504 284V252ZM451 304Q451 392 409 443T289 494Q247 494 214 478T160 434T127 371T114 299H451V304ZM243 714V641H181V714H243ZM413 714V641H352V714H413Z"  />
<glyph unicode="&#xEC;" horiz-adv-x="237" d="M147 528V0H90V528H147ZM-13 768H51L147 604H104L-13 768Z"  />
<glyph unicode="&#xED;" horiz-adv-x="237" d="M147 528V0H90V528H147ZM137 604H94L191 768H254L137 604Z"  />
<glyph unicode="&#xEE;" horiz-adv-x="237" d="M147 528V0H90V528H147ZM222 604L120 733L19 604H-30L90 768H150L271 604H222Z"  />
<glyph unicode="&#xEF;" horiz-adv-x="237" d="M147 528V0H90V528H147ZM66 714V641H4V714H66ZM236 714V641H175V714H236Z"  />
<glyph unicode="&#xF0;" horiz-adv-x="592" d="M296 639Q262 656 231 666T168 682L186 730Q228 722 273 706T355 664L477 715V670L392 634Q432 598 459 553T502 459T526 357T534 254Q534 195 519 146T473 61T399 7T296 -12Q240 -12 196 6T121 58T74 138T58 242Q58 299 74 346T120 426T195 477T296 495Q347 495 388 478T456 429H457Q443 479 414 526T337 611L164 539V584L296 639ZM478 242Q478 339 430 393T296 448Q252 448 219 433T162 389T127 323T115 242Q115 198 126 161T161 95T218 51T296 35Q341 35 375 50T432 94T466 159T478 242Z"  />
<glyph unicode="&#xF1;" horiz-adv-x="590" d="M145 528V438H147Q170 486 216 513T320 540Q409 540 458 487T507 346V0H450V326Q450 363 443 394T419 447T375 481T308 493Q277 493 249 483T197 450T161 392T147 308V0H90V528H145ZM319 703Q340 687 354 679T382 670Q422 670 425 737H468Q466 687 446 657T384 627Q362 627 345 635T305 661Q285 677 271 685T242 694Q202 694 199 627H156Q158 675 179 706T241 737Q263 737 280 729T319 703Z"  />
<glyph unicode="&#xF2;" horiz-adv-x="591" d="M533 265Q533 202 517 152T471 64T396 8T296 -12Q240 -12 196 7T121 63T74 151T58 265Q58 328 74 379T120 465T195 520T296 540Q352 540 396 520T471 465T517 379T533 265ZM476 265Q476 314 465 356T432 429T376 476T296 493Q252 493 217 476T160 427T126 355T115 265Q115 216 126 175T159 102T216 53T296 35Q342 35 376 52T432 100T465 173T476 265ZM176 768H240L336 604H293L176 768Z"  />
<glyph unicode="&#xF3;" horiz-adv-x="591" d="M533 265Q533 202 517 152T471 64T396 8T296 -12Q240 -12 196 7T121 63T74 151T58 265Q58 328 74 379T120 465T195 520T296 540Q352 540 396 520T471 465T517 379T533 265ZM476 265Q476 314 465 356T432 429T376 476T296 493Q252 493 217 476T160 427T126 355T115 265Q115 216 126 175T159 102T216 53T296 35Q342 35 376 52T432 100T465 173T476 265ZM295 604H252L349 768H412L295 604Z"  />
<glyph unicode="&#xF4;" horiz-adv-x="591" d="M533 265Q533 202 517 152T471 64T396 8T296 -12Q240 -12 196 7T121 63T74 151T58 265Q58 328 74 379T120 465T195 520T296 540Q352 540 396 520T471 465T517 379T533 265ZM476 265Q476 314 465 356T432 429T376 476T296 493Q252 493 217 476T160 427T126 355T115 265Q115 216 126 175T159 102T216 53T296 35Q342 35 376 52T432 100T465 173T476 265ZM397 604L295 733L194 604H145L265 768H325L446 604H397Z"  />
<glyph unicode="&#xF5;" horiz-adv-x="591" d="M533 265Q533 202 517 152T471 64T396 8T296 -12Q240 -12 196 7T121 63T74 151T58 265Q58 328 74 379T120 465T195 520T296 540Q352 540 396 520T471 465T517 379T533 265ZM476 265Q476 314 465 356T432 429T376 476T296 493Q252 493 217 476T160 427T126 355T115 265Q115 216 126 175T159 102T216 53T296 35Q342 35 376 52T432 100T465 173T476 265ZM302 703Q323 687 337 679T365 670Q405 670 408 737H451Q449 687 429 657T367 627Q345 627 328 635T288 661Q268 677 254 685T225 694Q185 694 182 627H139Q141 675 162 706T224 737Q246 737 263 729T302 703Z"  />
<glyph unicode="&#xF6;" horiz-adv-x="591" d="M533 265Q533 202 517 152T471 64T396 8T296 -12Q240 -12 196 7T121 63T74 151T58 265Q58 328 74 379T120 465T195 520T296 540Q352 540 396 520T471 465T517 379T533 265ZM476 265Q476 314 465 356T432 429T376 476T296 493Q252 493 217 476T160 427T126 355T115 265Q115 216 126 175T159 102T216 53T296 35Q342 35 376 52T432 100T465 173T476 265ZM241 714V641H179V714H241ZM411 714V641H350V714H411Z"  />
<glyph unicode="&#xF7;" horiz-adv-x="536" d="M45 293V337H491V293H45ZM303 99H237V171H303V99ZM303 457H237V530H303V457Z"  />
<glyph unicode="&#xF8;" horiz-adv-x="591" d="M477 457Q533 384 533 265Q533 202 517 151T471 64T396 8T296 -12Q245 -12 205 4T134 49L72 -25L46 -3L111 75Q58 146 58 265Q58 328 74 379T120 465T195 520T296 540Q392 540 454 483L511 551L537 528L477 457ZM476 265Q476 309 468 346T441 414L168 90Q191 64 222 50T296 35Q342 35 376 52T432 100T465 173T476 265ZM115 265Q115 223 123 186T148 119L420 443Q397 467 367 480T296 493Q250 493 216 476T160 428T126 356T115 265Z"  />
<glyph unicode="&#xF9;" horiz-adv-x="590" d="M445 0V90H443Q420 42 374 15T270 -12Q180 -12 132 41T83 182V528H140V202Q140 164 147 134T171 81T215 47T282 35Q313 35 342 45T393 78T429 136T443 220V528H500V0H445ZM169 768H233L329 604H286L169 768Z"  />
<glyph unicode="&#xFA;" horiz-adv-x="590" d="M445 0V90H443Q420 42 374 15T270 -12Q180 -12 132 41T83 182V528H140V202Q140 164 147 134T171 81T215 47T282 35Q313 35 342 45T393 78T429 136T443 220V528H500V0H445ZM304 604H261L358 768H421L304 604Z"  />
<glyph unicode="&#xFB;" horiz-adv-x="590" d="M445 0V90H443Q420 42 374 15T270 -12Q180 -12 132 41T83 182V528H140V202Q140 164 147 134T171 81T215 47T282 35Q313 35 342 45T393 78T429 136T443 220V528H500V0H445ZM396 604L294 733L193 604H144L264 768H324L445 604H396Z"  />
<glyph unicode="&#xFC;" horiz-adv-x="590" d="M445 0V90H443Q420 42 374 15T270 -12Q180 -12 132 41T83 182V528H140V202Q140 164 147 134T171 81T215 47T282 35Q313 35 342 45T393 78T429 136T443 220V528H500V0H445ZM239 714V641H177V714H239ZM409 714V641H348V714H409Z"  />
<glyph unicode="&#xFD;" horiz-adv-x="485" d="M246 74H248L418 528H479L194 -195H134L215 8L7 528H69L246 74ZM258 604H215L312 768H375L258 604Z"  />
<glyph unicode="&#xFE;" horiz-adv-x="603" d="M147 -195H90V735H147V424H149Q172 474 220 507T328 540Q379 540 419 519T487 460T529 373T544 265Q544 207 529 157T486 68T416 9T324 -12Q265 -12 219 19T149 99H147V-195ZM487 265Q487 312 477 353T445 426T393 475T320 493Q278 493 246 476T191 429T156 357T144 265Q144 216 156 174T191 101T247 52T319 35Q360 35 392 53T445 102T476 175T487 265Z"  />
<glyph unicode="&#xFF;" horiz-adv-x="485" d="M246 74H248L418 528H479L194 -195H134L215 8L7 528H69L246 74ZM193 714V641H131V714H193ZM363 714V641H302V714H363Z"  />
<glyph unicode="&#x110;" horiz-adv-x="687" d="M153 349V50H267Q417 50 494 130T572 357Q572 504 494 584T267 664H153V388H290V349H153ZM95 388V714H275Q358 714 424 691T535 622T605 511T630 357Q630 270 606 204T536 92T424 24T275 0H95V349H21V388H95Z"  />
<glyph unicode="&#x131;" horiz-adv-x="237" d="M147 528V0H90V528H147Z"  />
<glyph unicode="&#x152;" horiz-adv-x="945" d="M62 357Q62 444 86 510T157 622T268 690T417 714H884V664H566V393H861V343H566V50H893V0H417Q334 0 268 23T157 92T87 203T62 357ZM508 664H425Q277 664 199 584T120 357Q120 210 198 130T425 50H508V664Z"  />
<glyph unicode="&#x153;" horiz-adv-x="973" d="M920 251H528Q529 207 542 168T582 99T646 52T735 35Q772 35 809 41T876 60L886 14Q854 2 814 -5T733 -12Q644 -12 587 29T504 137Q481 68 428 28T295 -12Q239 -12 195 7T120 63T73 151T57 265Q57 328 73 379T120 465T195 520T295 540Q371 540 424 502T503 396Q515 425 533 452T577 499T634 529T705 540Q761 540 801 521T868 468T907 387T920 283V251ZM295 35Q341 35 375 52T431 100T465 173T476 264Q476 314 465 356T431 429T374 476T295 493Q250 493 216 476T159 427T125 354T114 265Q114 216 125 175T158 102T215 53T295 35ZM867 303Q867 345 857 380T826 440T775 479T705 493Q660 493 628 477T575 433T542 371T528 298H867V303Z"  />
<glyph unicode="&#x160;" horiz-adv-x="529" d="M435 644Q396 660 358 668T279 676Q248 676 219 669T167 647T130 608T116 549Q116 519 126 497T156 457T205 424T274 393Q323 374 360 355T424 312T465 255T480 179Q480 129 462 93T412 33T339 -1T252 -12Q201 -12 147 0T48 33L64 85Q106 62 156 50T253 38Q290 38 321 46T374 72T409 114T422 175Q422 207 409 231T372 275T315 312T241 345Q197 363 163 382T106 425T71 478T58 546Q58 593 77 627T129 683T200 715T280 726Q325 726 367 719T451 694L435 644ZM425 906L305 760H245L124 906H173L275 796L376 906H425Z"  />
<glyph unicode="&#x161;" horiz-adv-x="456" d="M363 466Q334 480 301 486T236 493Q213 493 193 489T155 474T128 447T118 405Q118 384 125 368T148 339T184 316T237 294Q273 281 302 267T354 235T388 192T400 134Q400 95 385 67T346 22T288 -4T219 -12Q174 -12 130 -2T51 26L67 72Q102 55 142 45T220 35Q278 35 310 58T343 131Q343 153 333 170T306 201T264 226T208 250Q136 275 99 309T61 400Q61 436 76 462T117 506T173 532T236 540Q274 540 310 533T378 511L363 466ZM387 766L267 602H207L86 766H135L237 637L338 766H387Z"  />
<glyph unicode="&#x178;" horiz-adv-x="587" d="M264 295L1 714H71L294 349L521 714H586L322 295V0H264V295ZM240 876V803H178V876H240ZM410 876V803H349V876H410Z"  />
<glyph unicode="&#x17D;" horiz-adv-x="561" d="M446 664H74V714H514V664L108 50H522V0H42V50L446 664ZM446 906L326 760H266L145 906H194L296 796L397 906H446Z"  />
<glyph unicode="&#x17E;" horiz-adv-x="479" d="M357 481H65V528H422V481L111 47H433V0H46V47L357 481ZM399 766L279 602H219L98 766H147L249 637L350 766H399Z"  />
<glyph unicode="&#x192;" d="M299 393H439V346H293L246 18Q242 -15 231 -42T201 -91T155 -124T91 -136Q69 -136 46 -131T7 -119L18 -70Q32 -77 51 -81T88 -85Q136 -85 159 -58T190 28L235 346H102V393H242L268 572Q272 604 284 631T318 680T368 713T433 726Q459 726 482 721T522 708L505 660Q476 675 433 675Q384 675 358 645T323 559L299 393Z"  />
<glyph unicode="&#x2C6;" horiz-adv-x="467" d="M335 604L233 733L132 604H83L203 768H263L384 604H335Z"  />
<glyph unicode="&#x2C7;" horiz-adv-x="467" d="M383 766L263 602H203L82 766H131L233 637L334 766H383Z"  />
<glyph unicode="&#x2DA;" horiz-adv-x="467" d="M234 787Q254 787 271 780T301 759T321 728T329 691Q329 651 302 623T234 595Q193 595 166 623T137 691Q137 731 165 759T234 787ZM233 755Q207 755 188 736T169 691Q169 664 188 646T234 627Q260 627 278 645T297 691Q297 718 279 736T233 755Z"  />
<glyph unicode="&#x2DC;" horiz-adv-x="467" d="M241 703Q262 687 276 679T304 670Q344 670 347 737H390Q388 687 368 657T306 627Q284 627 267 635T227 661Q207 677 193 685T164 694Q124 694 121 627H78Q80 675 101 706T163 737Q185 737 202 729T241 703Z"  />
<glyph unicode="&#x3BC;" horiz-adv-x="621" d="M90 528H147V202Q147 164 154 133T178 81T222 47T289 35Q320 35 349 45T400 78T436 136T450 220V528H507V100Q507 66 517 53T552 40Q558 40 564 40T576 42V-3Q568 -5 559 -6T539 -7Q497 -7 475 17T453 93H451Q428 42 381 15T277 -12Q233 -12 200 3T150 48H148V-195H90V528Z"  />
<glyph unicode="&#x2013;" horiz-adv-x="446" d="M27 321H418V279H27V321Z"  />
<glyph unicode="&#x2014;" horiz-adv-x="698" d="M27 321H670V279H27V321Z"  />
<glyph unicode="&#x2018;" horiz-adv-x="271" d="M143 523H77L150 735H192L143 523Z"  />
<glyph unicode="&#x2019;" horiz-adv-x="271" d="M127 735H192L119 523H77L127 735Z"  />
<glyph unicode="&#x201A;" horiz-adv-x="271" d="M127 80H192L118 -130H77L127 80Z"  />
<glyph unicode="&#x201C;" horiz-adv-x="399" d="M140 523H77L150 735H192L140 523ZM270 523H208L279 735H320L270 523Z"  />
<glyph unicode="&#x201D;" horiz-adv-x="399" d="M127 735H190L119 524H78L127 735ZM258 735H321L246 524H206L258 735Z"  />
<glyph unicode="&#x201E;" horiz-adv-x="399" d="M127 80H190L119 -130H78L127 80ZM258 80H321L246 -130H206L258 80Z"  />
<glyph unicode="&#x2020;" horiz-adv-x="519" d="M287 466H486V415H287V-126H232V415H32V466H232V668H287V466Z"  />
<glyph unicode="&#x2021;" horiz-adv-x="519" d="M287 477H477V426H287V115H477V64H287V-126H232V64H41V115H232V426H41V477H232V668H287V477Z"  />
<glyph unicode="&#x2022;" horiz-adv-x="465" d="M68 329Q68 363 81 393T116 445T168 481T232 494Q266 494 296 481T349 446T384 394T397 329Q397 294 384 265T349 213T296 178T232 165Q198 165 168 178T116 213T81 265T68 329Z"  />
<glyph unicode="&#x2026;" horiz-adv-x="795" d="M96 81H171V0H96V81ZM360 81H435V0H360V81ZM624 81H699V0H624V81Z"  />
<glyph unicode="&#x2030;" horiz-adv-x="1087" d="M180 0H137L583 714H626L180 0ZM327 536Q327 457 294 409T196 359Q133 359 99 408T65 536Q65 618 99 666T196 714Q259 714 293 666T327 536ZM279 536Q279 565 275 590T260 633T234 662T196 673Q175 673 159 663T133 634T118 590T113 536Q113 508 118 484T133 441T158 411T196 400Q218 400 234 411T260 440T274 483T279 536ZM700 172Q700 91 667 43T570 -5Q508 -5 474 43T439 172Q439 252 473 301T570 350Q632 350 666 302T700 172ZM653 172Q653 235 633 271T570 308Q548 308 533 298T507 269T492 226T487 172Q487 144 492 119T507 76T532 47T570 36Q592 36 608 46T634 76T648 119T653 172ZM1022 172Q1022 91 989 43T892 -5Q831 -5 796 42T761 172Q761 252 795 301T892 350Q953 350 987 303T1022 172ZM975 172Q975 236 955 272T892 308Q870 308 855 298T829 269T814 226T809 172Q809 144 814 119T829 76T854 47T892 36Q914 36 930 46T956 75T970 119T975 172Z"  />
<glyph unicode="&#x2039;" horiz-adv-x="334" d="M134 298L254 115H200L81 295V300L201 481H254L134 298Z"  />
<glyph unicode="&#x203A;" horiz-adv-x="334" d="M201 298L81 481H135L254 300V295L133 115H81L201 298Z"  />
<glyph unicode="&#x2044;" horiz-adv-x="111" d="M-125 0H-169L245 714H290L-125 0Z"  />
<glyph unicode="&#x20AC;" horiz-adv-x="664" d="M49 460H126Q138 520 164 569T231 653T326 707T450 726Q495 726 535 718T608 693L592 644Q557 661 524 668T451 675Q394 675 350 660T272 616T218 548T186 460H538L526 418H178Q176 402 175 386T174 354Q174 343 174 333T176 313H502L490 270H181Q190 218 211 177T265 104T344 56T449 38Q497 38 533 47T601 72L618 25Q547 -12 446 -12Q376 -12 320 8T224 66T158 155T122 270H36L49 313H117Q116 323 116 333T116 355Q116 386 119 418H36L49 460Z"  />
<glyph unicode="&#x2122;" horiz-adv-x="917" d="M350 677H243V331H200V677H91V714H350V677ZM764 331H724V670H722L607 331H563L449 670H447V331H406V714H476L585 384H587L696 714H764V331Z"  />

</font>
</defs>
</svg>
