<?xml  version="1.0" encoding="UTF-8"?>
<!DOCTYPE svg PUBLIC "-//W3C//DTD SVG 1.0//EN" "http://www.w3.org/TR/2001/REC-SVG-20010904/DTD/svg10.dtd" >
<svg xmlns="http://www.w3.org/2000/svg" >
<metadata>
<version>1.0</version>
<id><![CDATA[SST W01 Roman]]></id>
<vendor>Monotype Imaging Inc.</vendor>
<credits>
<name>Fonts.com WebFonts</name>
<URL>http://webfonts.fonts.com</URL>
<role>Home of the Web fonts</role>
</credits>
<license>
<URL>http://webfonts.fonts.com/Legal</URL>
</license>
<copyright><![CDATA[Copyright © 2011 Linotype GmbH, www.linotype.com. All rights reserved. This font software may not be reproduced, modified, disclosed or transferred without the express written approval of Linotype GmbH. SST is a trademark of Linotype GmbH and may be registered in certain jurisdictions. This typeface is original artwork of Akira Kobayashi. The design may be protected in certain jurisdictions.]]></copyright>
<trademark><![CDATA[SST is a trademark of Linotype GmbH and may be registered in certain jurisdictions.]]></trademark>
<licensee>
<name></name>
</licensee>
</metadata>
<defs >
<font horiz-adv-x="537" id="8f7596eb-da17-4318-8ca4-46c048c4e97a">
<font-face font-family="" panose-1="2 11 5 4 3 5 4 2 2 4" ascent="1077" descent="-230" units-per-em="1000" alphabetic="0">
</font-face>
<missing-glyph horiz-adv-x="0" />

<glyph unicode="&#xA;" />
<glyph unicode="&#xD;" horiz-adv-x="0" />
<glyph unicode=" " horiz-adv-x="260" />
<glyph unicode="!" horiz-adv-x="305" d="M186 199H119L102 714H203L186 199ZM104 97H201V0H104V97Z"  />
<glyph unicode="&quot;" horiz-adv-x="391" d="M76 735H166L147 512H95L76 735ZM225 735H314L296 512H244L225 735Z"  />
<glyph unicode="#" horiz-adv-x="555" d="M135 216H33V276H143L166 440H57V500H175L204 714H266L236 500H370L399 714H461L432 500H523V440H423L401 276H497V216H392L363 0H300L331 216H197L167 0H105L135 216ZM206 276H339L362 440H227L206 276Z"  />
<glyph unicode="$" horiz-adv-x="539" d="M432 609Q402 621 371 628T308 637V389Q351 372 383 354T437 312T470 260T481 194Q481 152 467 120T429 66T373 31T308 13V-78H245V9Q201 10 153 20T59 50L79 118Q120 97 163 87T245 75V333L239 336Q151 371 110 415T69 526Q69 567 83 597T123 649T180 683T245 700V783H308V702Q347 700 383 694T452 674L432 609ZM147 534Q147 493 169 466T245 414V635Q227 632 209 625T177 605T155 576T147 534ZM402 190Q402 229 378 256T308 305V80Q351 90 376 117T402 190Z"  />
<glyph unicode="%" horiz-adv-x="804" d="M206 0H146L596 714H654L206 0ZM348 528Q348 441 311 392T206 342Q139 343 102 392T65 528Q65 616 102 665T206 715Q274 715 311 666T348 528ZM280 528Q280 555 276 578T263 620T240 648T206 658Q187 658 173 648T151 620T138 579T134 528Q134 502 138 479T150 438T173 410T206 400Q226 400 240 410T263 438T276 479T280 528ZM739 186Q739 99 703 50T598 0Q530 1 494 50T457 186Q457 274 494 323T598 373Q666 372 702 323T739 186ZM671 186Q671 213 667 236T655 277T632 305T598 315Q561 314 543 279T525 186Q525 159 529 136T542 96T564 68T598 58Q618 58 632 68T654 95T667 135T671 186Z"  />
<glyph unicode="&amp;" horiz-adv-x="713" d="M397 570Q397 612 373 636T305 661Q259 660 235 633T210 564Q210 528 228 496T279 432Q302 442 323 455T361 484T387 522T397 570ZM251 351Q192 324 164 286T136 191Q136 161 146 136T174 93T217 65T271 55Q326 56 363 82T425 153L251 351ZM674 0H562L478 97Q437 40 388 14T267 -12Q223 -12 184 0T115 38T68 100T51 185Q51 227 63 261T95 321T144 367T208 402Q172 438 152 475T131 561Q131 600 144 630T181 682T237 714T305 726Q381 726 428 687T477 569Q477 534 465 506T431 455T383 413T325 381L470 220Q477 233 486 252T504 293T523 337T541 379H631Q621 356 608 328T580 270T552 214T527 168L674 0Z"  />
<glyph unicode="&apos;" horiz-adv-x="242" d="M76 735H166L147 512H95L76 735Z"  />
<glyph unicode="(" horiz-adv-x="310" d="M111 302Q111 169 144 40T244 -195H167Q108 -102 73 26T37 302Q38 449 72 575T167 797H244Q178 691 145 562T111 302Z"  />
<glyph unicode=")" horiz-adv-x="310" d="M199 299Q199 433 166 562T66 797H142Q202 702 237 575T273 299Q272 153 238 27T142 -195H66Q132 -89 165 39T199 299Z"  />
<glyph unicode="*" horiz-adv-x="413" d="M234 581L365 623L384 571L253 529L337 411L292 377L206 498L121 377L76 411L160 529L29 571L48 623L179 581V714H234V581Z"  />
<glyph unicode="+" horiz-adv-x="539" d="M303 542V346H498V284H303V74H238V284H42V346H238V542H303Z"  />
<glyph unicode="&#x2c;" horiz-adv-x="279" d="M104 97H197L115 -141H61L104 97Z"  />
<glyph unicode="-" horiz-adv-x="400" d="M74 335H325V266H74V335Z"  />
<glyph unicode="." horiz-adv-x="279" d="M89 101H190V0H89V101Z"  />
<glyph unicode="/" horiz-adv-x="493" d="M375 714H459L118 0H34L375 714Z"  />
<glyph unicode="0" horiz-adv-x="613" d="M307 726Q372 726 419 700T498 624T545 507T561 354Q561 271 546 203T499 88T420 14T307 -12Q241 -12 193 14T114 88T67 203T52 354Q52 438 67 507T114 624T193 699T307 726ZM307 654Q261 654 229 633T177 573T148 478T138 354Q138 288 147 234T176 141T229 81T307 60Q352 60 383 80T435 139T465 232T475 354Q475 422 466 478T436 572T384 632T307 654Z"  />
<glyph unicode="1" horiz-adv-x="398" d="M281 0H195V631L43 527L4 587L188 714H281V0Z"  />
<glyph unicode="2" horiz-adv-x="531" d="M484 0H35V77Q146 178 215 247T324 367T377 454T391 530Q391 559 380 582T349 621T303 645T248 654Q204 654 163 636T85 588L48 650Q87 685 139 705T248 726Q297 726 339 714T412 677T460 617T478 532Q478 481 463 438T410 344T307 230T141 73H484V0Z"  />
<glyph unicode="3" horiz-adv-x="533" d="M123 404H185Q224 404 259 411T320 434T362 475T378 537Q377 596 338 625T236 654Q192 654 152 644T70 610L43 680Q87 703 138 714T241 726Q286 726 326 715T397 680T446 623T465 544Q465 476 427 433T321 371V369Q398 358 441 313T484 201Q484 149 465 110T411 43T332 2T234 -12Q176 -12 123 0T26 35L52 105Q93 83 138 72T234 60Q270 60 299 68T351 93T386 137T398 199Q398 239 379 264T329 305T260 325T185 331H123V404Z"  />
<glyph unicode="4" horiz-adv-x="583" d="M448 244H544V171H448V0H362V171H20V260L314 714H448V244ZM362 643H360L103 244H362V643Z"  />
<glyph unicode="5" horiz-adv-x="548" d="M408 219Q408 261 392 290T347 337T285 362T213 370Q178 370 145 367T73 357L88 714H451V642H164L153 437Q177 440 198 441T230 442Q282 442 329 429T413 388T472 320T494 224Q494 165 473 120T416 46T334 3T235 -12Q181 -12 134 -4T40 26L65 97Q109 77 148 69T234 60Q270 60 301 69T356 97T394 147T408 219Z"  />
<glyph unicode="6" horiz-adv-x="581" d="M143 247Q143 213 152 180T180 120T230 77T302 60Q373 60 414 107T455 232Q455 266 446 296T420 348T375 383T310 396Q274 396 243 384T190 351T156 303T143 247ZM140 383Q166 421 213 444T314 468Q366 468 408 450T479 401T525 326T541 232Q541 179 524 134T476 57T401 6T305 -12Q231 -12 180 18T101 98T63 205T52 317Q52 404 69 479T120 609T208 695T333 726Q376 726 411 719T475 698L453 630Q429 642 399 648T336 654Q285 654 247 631T187 569T153 483T138 383H140Z"  />
<glyph unicode="7" horiz-adv-x="495" d="M36 714H468V642Q414 562 372 479T301 311T255 149T230 0H144Q150 72 170 154T219 321T289 488T376 642H36V714Z"  />
<glyph unicode="8" horiz-adv-x="582" d="M291 334Q265 334 235 326T181 301T142 258T127 195Q127 161 139 136T173 94T224 69T291 60Q327 60 357 68T409 93T442 135T455 195Q455 232 440 258T401 301T347 326T291 334ZM289 726Q334 726 375 714T448 678T499 619T518 536Q518 469 487 430T401 375V373Q428 364 453 350T497 313T529 261T541 188Q541 138 522 101T468 38T389 1T291 -12Q239 -12 194 0T114 38T61 101T41 188Q41 228 53 258T86 311T130 347T181 369V371Q131 387 98 429T64 536Q64 583 82 618T132 678T204 714T289 726ZM290 404Q318 404 344 411T389 435T419 476T431 536Q431 592 393 623T289 654Q226 654 189 623T151 536Q151 501 162 477T192 436T236 412T290 404Z"  />
<glyph unicode="9" horiz-adv-x="581" d="M438 467Q438 501 429 534T401 594T351 637T279 654Q209 654 168 607T126 482Q126 448 135 418T162 366T207 331T271 318Q307 318 338 330T391 363T425 411T438 467ZM441 331Q416 293 369 270T267 246Q215 246 173 263T102 312T56 387T40 482Q40 535 57 580T105 657T180 708T276 726Q352 726 403 695T481 614T518 509T529 397Q529 310 512 235T461 106T374 20T248 -12Q212 -12 171 -6T95 15L113 84Q142 73 177 67T245 60Q298 60 335 83T394 145T429 231T443 331H441Z"  />
<glyph unicode=":" horiz-adv-x="335" d="M117 101H218V0H117V101ZM117 528H218V428H117V528Z"  />
<glyph unicode=";" horiz-adv-x="335" d="M117 528H218V428H117V528ZM124 97H217L135 -141H81L124 97Z"  />
<glyph unicode="&lt;" horiz-adv-x="539" d="M42 264V353L498 518V452L103 311V309L498 166V100L42 264Z"  />
<glyph unicode="=" horiz-adv-x="539" d="M42 377V439H498V377H42ZM42 191V253H498V191H42Z"  />
<glyph unicode="&gt;" horiz-adv-x="539" d="M42 100V166L436 309V311L42 452V518L498 353V264L42 100Z"  />
<glyph unicode="?" horiz-adv-x="464" d="M244 179H166V213Q166 246 171 271T187 319T214 359T254 398L285 424Q314 449 331 477T349 547Q349 578 338 599T309 632T266 649T217 654Q185 654 148 644T76 614L50 680Q88 703 131 714T226 726Q266 726 303 718T370 689T416 635T434 551Q434 516 426 489T403 439T370 398T328 362Q306 344 290 329T264 297T249 259T244 207V179ZM156 97H258V0H156V97Z"  />
<glyph unicode="@" horiz-adv-x="930" d="M477 448Q443 448 417 428T373 376T346 307T337 233Q337 212 341 189T355 146T383 114T429 101Q467 101 494 123T539 178T563 249T571 317Q571 340 567 363T552 406T524 436T477 448ZM752 -128Q638 -185 487 -185Q382 -185 301 -152T163 -58T77 86T47 270Q47 369 80 452T171 597T310 692T482 726Q563 726 635 703T763 631T850 510T882 338Q882 263 864 206T816 111T746 54T663 34Q638 34 620 41T589 62T571 91T565 125H563Q558 112 546 96T514 66T471 43T419 34Q377 34 347 49T296 91T266 156T256 239Q256 291 271 340T316 429T386 491T480 515Q522 515 554 493T599 438H601L613 497H683L638 267Q636 259 634 246T630 219T627 191T625 168Q625 157 627 145T635 123T651 108T681 101Q709 101 732 119T771 168T797 241T806 329Q806 409 783 470T716 573T613 636T481 658Q403 658 338 628T226 545T154 421T129 267Q129 179 154 109T227 -11T342 -87T495 -114Q633 -114 734 -62L752 -128Z"  />
<glyph unicode="A" horiz-adv-x="668" d="M96 0H3L275 714H392L665 0H570L486 214H177L96 0ZM199 287H465L332 648L199 287Z"  />
<glyph unicode="B" horiz-adv-x="618" d="M88 714H330Q377 714 416 704T485 671T531 614T548 531Q547 465 512 426T416 371V369Q446 363 474 351T522 318T555 269T568 200Q568 160 555 124T515 61T445 17T342 0H88V714ZM175 404H305Q378 404 419 432T461 526Q461 562 449 584T415 619T368 636T313 641H175V404ZM175 73H328Q364 73 391 79T439 100T470 140T481 202Q481 241 467 266T430 305T374 325T305 331H175V73Z"  />
<glyph unicode="C" horiz-adv-x="605" d="M544 622Q518 637 483 645T409 653Q340 652 291 630T209 567T160 472T143 354Q143 294 160 241T209 148T292 85T407 61Q453 61 487 69T554 95L579 27Q541 6 496 -3T402 -12Q321 -12 257 15T147 92T79 208T56 355Q56 436 79 503T147 621T257 698T408 726Q453 726 496 718T571 691L544 622Z"  />
<glyph unicode="D" horiz-adv-x="699" d="M88 714H291Q372 714 438 689T549 618T617 505T641 357Q641 274 618 209T549 96T439 25T291 0H88V714ZM175 73H278Q412 73 483 147T554 359Q555 488 485 564T278 641H175V73Z"  />
<glyph unicode="E" horiz-adv-x="540" d="M88 714H480V641H175V404H456V331H175V73H488V0H88V714Z"  />
<glyph unicode="F" horiz-adv-x="504" d="M88 714H464V641H175V404H447V331H175V0H88V714Z"  />
<glyph unicode="G" horiz-adv-x="717" d="M592 610Q557 630 514 641T423 653Q357 653 305 630T217 567T162 473T143 355Q143 294 162 241T218 147T305 84T420 61Q457 61 489 67T550 90V312H398V385H636V42Q577 11 522 -1T415 -12Q334 -12 268 15T156 91T83 207T56 356Q56 437 81 504T153 621T269 698T422 726Q533 726 618 686L592 610Z"  />
<glyph unicode="H" horiz-adv-x="694" d="M88 714H175V404H519V714H606V0H519V331H175V0H88V714Z"  />
<glyph unicode="I" horiz-adv-x="263" d="M88 714H175V0H88V714Z"  />
<glyph unicode="J" horiz-adv-x="314" d="M238 153Q238 114 230 84T203 32T154 -1T80 -12Q67 -12 44 -11T4 -5V68Q19 64 37 63T67 61Q114 61 132 82T151 153V714H238V153Z"  />
<glyph unicode="K" horiz-adv-x="592" d="M570 714L272 373L589 0H477L176 358H175V0H88V714H175V380H176L460 714H570Z"  />
<glyph unicode="L" horiz-adv-x="504" d="M88 714H175V73H491V0H88V714Z"  />
<glyph unicode="M" horiz-adv-x="872" d="M432 79H434L635 714H784V0H700V648H698L486 0H377L172 648H170V0H88V714H235L432 79Z"  />
<glyph unicode="N" horiz-adv-x="701" d="M529 92H531V714H613V0H485L172 627H170V0H88V714H219L529 92Z"  />
<glyph unicode="O" horiz-adv-x="754" d="M694 356Q694 276 673 209T612 92T512 16T377 -12Q301 -12 242 15T143 92T81 208T60 356Q60 437 81 504T142 621T242 698T377 726Q453 726 512 699T612 622T673 505T694 356ZM607 356Q607 417 593 471T551 565T478 629T372 653Q318 652 275 629T204 566T161 471T147 356Q147 295 161 242T203 148T275 85T377 61Q435 61 478 84T550 147T593 241T607 356Z"  />
<glyph unicode="P" horiz-adv-x="601" d="M88 714H320Q370 714 412 704T486 671T538 609T557 512Q557 455 539 414T487 347T412 310T322 299H175V0H88V714ZM175 372H314Q349 372 376 378T424 400T457 441T470 509Q469 552 457 577T422 616T370 636T305 641H175V372Z"  />
<glyph unicode="Q" horiz-adv-x="754" d="M694 356Q694 246 655 162T541 32L667 -117H554L463 -1Q421 -12 377 -12Q303 -13 243 15T142 92T81 208T60 356Q60 437 81 504T142 621T241 698T377 726Q453 726 512 699T612 622T673 505T694 356ZM607 356Q607 417 593 471T551 565T479 629T377 653Q319 653 276 630T204 566T161 471T147 356Q147 295 161 242T202 149T274 85T377 61Q435 61 479 84T551 148T593 241T607 356Z"  />
<glyph unicode="R" horiz-adv-x="623" d="M88 714H334Q381 714 422 703T493 669T539 610T556 525Q556 464 523 420T424 359V357Q465 347 487 317T528 223Q546 162 561 111T595 0H502Q496 21 489 49T474 107T459 163T446 208Q437 239 427 261T400 297T357 315T290 321H175V0H88V714ZM175 394H313Q387 394 427 424T469 520Q469 557 457 581T422 618T374 636T319 641H175V394Z"  />
<glyph unicode="S" horiz-adv-x="542" d="M443 623Q368 653 286 653Q260 653 235 648T189 630T155 597T142 544Q142 520 149 501T174 466T220 434T291 402Q343 382 380 362T444 316T483 259T496 185Q496 132 475 95T420 34T343 -1T256 -12Q208 -12 152 -1T45 32L67 107Q116 83 166 72T258 61Q290 61 317 68T365 90T397 127T409 179Q409 206 398 228T364 267T311 300T238 333Q145 370 101 418T55 536Q55 587 76 623T130 681T205 715T287 726Q335 726 380 719T464 696L443 623Z"  />
<glyph unicode="T" horiz-adv-x="542" d="M230 641H15V714H527V641H317V0H230V641Z"  />
<glyph unicode="U" horiz-adv-x="675" d="M600 211Q600 162 582 122T531 51T448 5T337 -12Q276 -12 228 4T145 51T93 121T75 211V714H162V220Q162 143 206 102T336 61Q422 62 467 104T513 220V714H600V211Z"  />
<glyph unicode="V" horiz-adv-x="627" d="M3 714H96L313 79H315L531 714H624L368 0H257L3 714Z"  />
<glyph unicode="W" horiz-adv-x="953" d="M477 648H475L340 0H216L42 714H134L278 79H280L410 714H544L675 79H677L822 714H911L736 0H613L477 648Z"  />
<glyph unicode="X" horiz-adv-x="598" d="M353 372L595 0H492L299 306L102 0H3L250 372L29 714H128L303 434L483 714H580L353 372Z"  />
<glyph unicode="Y" horiz-adv-x="611" d="M262 291L1 714H104L307 372L513 714H610L349 291V0H262V291Z"  />
<glyph unicode="Z" horiz-adv-x="582" d="M428 641H74V714H527V642L145 73H540V0H47V73L428 641Z"  />
<glyph unicode="[" horiz-adv-x="310" d="M229 742H137V-140H229V-195H64V797H229V742Z"  />
<glyph unicode="\" horiz-adv-x="493" d="M462 0H372L31 714H121L462 0Z"  />
<glyph unicode="]" horiz-adv-x="310" d="M81 -140H173V742H81V797H246V-195H81V-140Z"  />
<glyph unicode="^" horiz-adv-x="539" d="M383 299L269 609H268L155 299H70L231 696H308L470 299H383Z"  />
<glyph unicode="_" horiz-adv-x="465" d="M465 -93V-140H0V-93H465Z"  />
<glyph unicode="`" horiz-adv-x="465" d="M98 768H189L280 604H219L98 768Z"  />
<glyph unicode="a" horiz-adv-x="554" d="M387 342Q389 473 259 473Q227 473 192 465T124 442L105 509Q136 522 179 531T263 540Q359 541 415 494T472 351V120Q472 94 474 61T482 0H407Q398 33 395 79H393Q371 40 330 15T224 -12Q191 -12 160 -3T105 25T65 75T50 147Q51 204 77 239T150 295T258 322T387 329V342ZM363 268Q318 268 277 263T204 246T152 211T132 152Q131 110 155 83T229 55Q268 55 298 68T347 105T377 159T387 223V268H363Z"  />
<glyph unicode="b" horiz-adv-x="613" d="M165 0H83V735H168V448H170Q200 495 243 517T335 540Q387 540 428 519T498 460T542 373T557 265Q557 207 542 157T497 69T426 10T331 -12Q283 -12 240 8T166 73H165V0ZM472 265Q472 308 463 345T435 411T388 456T322 473Q284 473 255 457T205 413T174 347T163 265Q163 221 173 183T204 117T254 72T322 55Q359 55 388 72T435 118T462 184T472 265Z"  />
<glyph unicode="c" horiz-adv-x="490" d="M429 451Q381 473 325 473Q281 473 247 457T189 412T153 345T141 263Q141 220 153 182T188 116T245 72T325 55Q354 55 378 59T431 77L445 10Q413 -2 384 -7T324 -12Q258 -12 208 9T125 66T74 153T56 263Q56 323 74 374T127 461T211 519T323 540Q395 540 448 518L429 451Z"  />
<glyph unicode="d" horiz-adv-x="613" d="M446 735H531V0H449V80H447Q416 34 372 11T279 -12Q227 -12 186 9T116 68T72 156T56 265Q56 323 72 373T117 460T188 518T282 540Q331 540 371 521T444 456H446V735ZM141 265Q141 222 150 184T178 118T225 72T292 55Q330 55 359 71T409 116T440 183T451 265Q451 309 441 347T410 413T360 457T292 473Q255 473 226 457T179 412T151 346T141 265Z"  />
<glyph unicode="e" horiz-adv-x="567" d="M138 241Q142 158 191 107T327 55Q362 55 399 61T467 81L481 16Q448 2 407 -5T323 -12Q257 -11 209 8T125 66T73 154T56 263Q56 323 72 373T120 461T195 519T294 540Q349 540 390 522T459 470T499 388T513 282V241H138ZM295 473Q226 473 186 428T138 308H436V312Q435 388 397 430T295 473Z"  />
<glyph unicode="f" horiz-adv-x="335" d="M365 658Q345 663 324 665T285 668Q261 668 246 662T222 643T210 609T207 558V528H330V461H207V0H122V461H14V528H122V569Q122 607 129 638T155 690T205 723T282 735Q307 735 328 732T371 724L365 658Z"  />
<glyph unicode="g" horiz-adv-x="611" d="M141 274Q141 233 150 197T178 133T225 90T292 74Q329 74 358 89T408 132T439 195T450 274Q450 316 440 352T409 416T359 458T292 473Q254 473 226 458T179 415T151 352T141 274ZM448 96H446Q415 51 373 29T281 7Q228 7 187 27T116 84T72 169T56 274Q56 330 72 378T117 463T189 519T282 540Q333 540 375 520T446 457H448V528H530V30Q530 -28 510 -70T456 -140T377 -181T281 -195Q240 -195 196 -189T116 -168L132 -102Q164 -115 203 -121T281 -128Q363 -128 405 -86T448 34V96Z"  />
<glyph unicode="h" horiz-adv-x="598" d="M168 735V450H170Q194 492 236 516T332 540Q420 540 470 488T521 348V0H436V316Q436 352 430 381T410 431T372 462T312 473Q285 473 259 463T213 433T181 379T168 299V0H83V735H168Z"  />
<glyph unicode="i" horiz-adv-x="251" d="M168 528V0H83V528H168ZM171 727V639H80V727H171Z"  />
<glyph unicode="j" horiz-adv-x="251" d="M168 -47Q168 -117 132 -156T24 -195Q11 -195 -3 -194T-33 -191V-124Q-19 -126 -9 -127T16 -128Q56 -127 70 -104T83 -38V528H168V-47ZM171 727V639H80V727H171Z"  />
<glyph unicode="k" horiz-adv-x="515" d="M492 528L261 292L502 0H393L170 277H168V0H83V735H168V300H170L384 528H492Z"  />
<glyph unicode="l" horiz-adv-x="251" d="M168 735V0H83V735H168Z"  />
<glyph unicode="m" horiz-adv-x="913" d="M165 528V447H166Q186 490 229 515T325 540Q384 540 423 518T482 454H485Q514 501 556 520T652 540Q698 540 733 526T790 486T824 425T836 348V0H751V316Q751 351 746 380T727 430T690 462T632 473Q608 473 585 465T543 439T514 393T503 325V0H418V325Q418 362 413 389T396 434T361 463T303 473Q277 473 253 464T210 434T179 382T168 309V0H83V528H165Z"  />
<glyph unicode="n" horiz-adv-x="598" d="M165 528V450H166Q190 492 233 516T332 540Q420 540 470 488T521 348V0H436V316Q436 352 430 381T410 431T372 462T312 473Q285 473 259 463T213 433T181 379T168 299V0H83V528H165Z"  />
<glyph unicode="o" horiz-adv-x="602" d="M546 265Q546 200 529 149T480 62T403 7T301 -12Q244 -12 199 7T122 62T73 149T56 265Q56 329 73 380T122 467T199 521T301 540Q358 540 403 521T480 467T529 381T546 265ZM461 265Q461 311 452 349T423 414T373 457T301 473Q260 473 230 458T180 415T151 349T141 265Q141 219 151 181T180 114T230 71T301 55Q342 55 372 70T422 114T451 180T461 265Z"  />
<glyph unicode="p" horiz-adv-x="613" d="M168 -195H83V528H165V448H166Q198 496 242 518T335 540Q387 540 428 519T498 460T542 372T557 264Q557 206 542 156T498 68T427 10T332 -12Q284 -12 243 7T170 73H168V-195ZM472 264Q472 307 463 345T435 411T388 456T322 473Q284 473 255 457T205 413T174 346T163 264Q163 220 173 182T204 116T254 71T322 55Q359 55 387 71T434 116T462 183T472 264Z"  />
<glyph unicode="q" horiz-adv-x="613" d="M449 528H531V-195H446V80H444Q412 33 370 11T279 -12Q226 -12 185 9T115 68T71 156T56 265Q56 323 72 373T117 461T188 519T282 540Q332 540 373 522T447 456H449V528ZM141 265Q141 222 150 184T178 118T225 72T292 55Q330 55 359 71T409 116T440 183T451 265Q451 309 441 347T410 413T360 457T292 473Q255 473 226 457T179 412T151 346T141 265Z"  />
<glyph unicode="r" horiz-adv-x="352" d="M338 470Q320 473 294 473Q267 473 245 465T205 437T178 386T168 309V0H83V528H165V457H166Q185 499 219 519T304 540Q311 540 323 540T342 538L338 470Z"  />
<glyph unicode="s" horiz-adv-x="469" d="M372 446Q340 461 308 467T241 473Q223 473 206 470T174 458T150 436T141 400Q141 383 146 370T165 346T200 324T253 301Q291 287 321 272T373 239T406 195T418 137Q418 95 401 66T357 20T295 -4T225 -12Q186 -12 138 -3T48 26L70 93Q112 74 153 65T227 55Q273 54 303 71T335 132Q334 169 302 192T207 238Q136 263 98 299T59 391Q60 431 75 458T117 504T175 531T241 540Q283 540 323 533T392 511L372 446Z"  />
<glyph unicode="t" horiz-adv-x="354" d="M19 528H113V661H198V528H320V461H198V145Q198 118 200 102T209 76T229 63T265 60Q282 60 294 61T321 64V0Q307 -2 285 -4T241 -7Q200 -7 175 2T136 31T118 78T113 140V461H19V528Z"  />
<glyph unicode="u" horiz-adv-x="598" d="M433 0V78H432Q408 36 365 12T266 -12Q176 -11 127 40T77 180V528H162V212Q162 175 168 146T188 97T226 66T286 55Q313 55 339 65T385 95T417 149T430 229V528H515V0H433Z"  />
<glyph unicode="v" horiz-adv-x="510" d="M255 73H257L413 528H503L304 0H205L7 528H100L255 73Z"  />
<glyph unicode="w" horiz-adv-x="802" d="M570 73H572L687 528H778L624 0H515L403 458H401L286 0H176L24 528H116L231 73H233L344 528H460L570 73Z"  />
<glyph unicode="x" horiz-adv-x="502" d="M306 274L487 0H390L252 218L110 0H15L200 272L30 528H126L255 325L386 528H479L306 274Z"  />
<glyph unicode="y" horiz-adv-x="512" d="M257 103H259L415 528H505L217 -195H128L211 9L7 528H100L257 103Z"  />
<glyph unicode="z" horiz-adv-x="491" d="M338 461H67V528H435V464L146 67H445V0H47V61L338 461Z"  />
<glyph unicode="{" horiz-adv-x="310" d="M6 332Q33 335 48 345T72 372T83 414T86 472V653Q87 724 121 760T214 797H259V742H233Q196 742 178 720T159 648V470Q159 394 136 356T62 303V301Q115 284 137 246T159 134V-37Q159 -93 178 -117T235 -140H259V-195H215Q156 -195 122 -158T86 -49V131Q86 164 84 189T73 231T49 257T6 271V332Z"  />
<glyph unicode="|" horiz-adv-x="465" d="M265 735V-195H200V735H265Z"  />
<glyph unicode="}" horiz-adv-x="310" d="M304 270Q277 266 261 257T237 230T226 188T223 129V-51Q222 -123 188 -159T94 -195H51V-140H77Q112 -140 130 -119T150 -43V136Q150 207 172 245T247 299V300Q194 318 172 356T150 468V642Q149 696 130 719T72 741H51V797H93Q153 797 188 760T223 647V471Q223 437 225 413T236 371T261 344T304 331V270Z"  />
<glyph unicode="~" horiz-adv-x="539" d="M384 315Q426 317 453 330T498 364V295Q450 252 369 252Q338 253 312 262T261 283T213 304T156 314Q119 313 90 300T42 265V334Q66 356 97 366T167 377Q200 377 228 368T280 346T328 325T384 315Z"  />
<glyph unicode="&#xA0;" horiz-adv-x="260" />
<glyph unicode="&#xA1;" horiz-adv-x="305" d="M119 329H186L203 -186H102L119 329ZM201 432H104V528H201V432Z"  />
<glyph unicode="&#xA2;" horiz-adv-x="495" d="M432 453Q409 463 387 467T341 473V55Q366 56 388 60T436 77L450 10Q394 -11 341 -12V-67H277V-8Q224 0 184 23T116 82T75 164T61 263Q61 317 76 363T118 444T187 504T277 536V600H341V540Q373 539 399 535T451 521L432 453ZM146 263Q146 227 154 194T179 135T220 90T277 62V466Q213 447 180 392T146 263Z"  />
<glyph unicode="&#xA3;" horiz-adv-x="595" d="M482 625Q462 637 437 645T379 653Q344 653 320 642T282 612T260 566T253 510V404H410V345H253V73H534V0H61V73H166V345H68V404H166V516Q166 612 223 669T379 726Q420 726 453 719T510 697L482 625Z"  />
<glyph unicode="&#xA4;" horiz-adv-x="539" d="M271 226Q312 226 338 254T365 325Q365 367 338 395T271 423Q231 423 204 395T176 325Q176 283 203 255T271 226ZM98 555L179 474Q198 485 221 491T271 498Q297 498 320 492T363 474L444 555L499 499L419 419Q432 399 439 375T446 325Q446 273 420 232L499 153L442 96L363 175Q323 150 271 150Q244 150 221 157T177 177L96 96L40 152L121 232Q95 273 95 325Q95 376 120 417L40 498L98 555Z"  />
<glyph unicode="&#xA5;" horiz-adv-x="595" d="M256 207V296H84V355H237L27 714H119L302 379L480 714H569L361 355H512V296H340V207H512V148H340V0H256V148H84V207H256Z"  />
<glyph unicode="&#xA6;" horiz-adv-x="465" d="M265 735V367H200V735H265ZM265 172V-195H200V172H265Z"  />
<glyph unicode="&#xA7;" horiz-adv-x="539" d="M112 -50Q143 -66 185 -76T259 -86Q282 -86 304 -82T343 -68T370 -40T381 6Q381 25 375 40T351 69T306 99T230 136Q193 152 164 167T113 202T82 246T71 306Q71 358 101 390T175 438Q162 445 148 456T122 482T103 518T95 565Q95 610 112 641T162 692T231 719T303 726Q340 726 376 720T436 702L412 630Q403 635 390 639T363 647T332 652T302 654Q248 654 214 635T179 568Q179 547 187 531T213 500T256 473T317 444Q355 427 385 410T435 374T467 330T478 274Q478 223 455 191T388 139Q424 119 444 87T465 10Q465 -38 447 -70T399 -122T332 -150T255 -158Q234 -158 211 -155T166 -147T122 -135T86 -120L112 -50ZM235 400Q202 395 176 373T149 312Q149 292 155 277T174 250T208 227T259 202L329 171Q361 182 380 204T401 262Q401 284 393 300T371 329T339 352T299 371L235 400Z"  />
<glyph unicode="&#xA8;" horiz-adv-x="465" d="M187 626H101V720H187V626ZM364 626H279V720H364V626Z"  />
<glyph unicode="&#xA9;" horiz-adv-x="800" d="M94 355Q94 291 116 235T179 136T276 69T402 44Q469 44 525 68T622 135T684 234T707 355Q707 420 685 477T622 578T526 646T402 671Q334 671 277 646T180 578T117 478T94 355ZM35 355Q35 432 62 499T138 616T254 694T402 723Q481 723 548 695T663 617T738 500T765 355Q765 279 738 213T663 97T549 20T402 -9Q321 -9 254 19T138 97T62 213T35 355ZM503 507Q484 515 465 519T424 524Q386 524 359 511T314 474T289 421T281 357Q281 324 289 295T315 243T359 207T423 194Q474 194 510 212L524 154Q501 142 473 138T415 133Q365 133 327 149T261 196T220 267T206 357Q206 406 219 447T259 518T326 566T418 583Q447 583 473 579T519 565L503 507Z"  />
<glyph unicode="&#xAA;" horiz-adv-x="343" d="M228 580Q228 643 160 643Q116 643 74 622L61 676Q83 686 111 691T166 697Q298 697 298 581V444Q298 425 299 406T302 372H239Q237 380 236 392T235 413H233Q219 389 192 377T130 365Q111 365 93 370T61 386T37 415T28 459Q28 494 44 516T88 550T151 566T228 571V580ZM216 525Q192 525 171 522T133 512T107 493T97 463Q97 438 110 427T147 416Q168 416 183 424T208 446T222 475T227 507V525H216Z"  />
<glyph unicode="&#xAB;" horiz-adv-x="528" d="M150 298L270 107H192L73 295V300L195 488H270L150 298ZM336 298L456 107H378L259 295V300L381 488H456L336 298Z"  />
<glyph unicode="&#xAC;" horiz-adv-x="539" d="M40 390V449H499V179H437V390H40Z"  />
<glyph unicode="&#xAD;" horiz-adv-x="400" d="M74 335H325V266H74V335Z"  />
<glyph unicode="&#xAE;" horiz-adv-x="502" d="M39 525Q39 569 54 607T98 673T165 718T252 735Q299 735 338 719T404 674T447 608T463 525Q463 481 448 443T405 376T338 331T252 315Q205 315 166 331T98 376T55 443T39 525ZM73 525Q73 488 85 456T121 399T178 360T252 346Q292 346 325 360T381 398T417 455T430 525Q430 562 417 594T381 651T325 689T252 703Q211 703 178 689T122 651T86 594T73 525ZM168 647H265Q299 647 320 635T343 584Q343 538 298 525V524Q310 521 318 511T333 480Q339 460 345 441T357 404H312Q307 422 302 439T293 470Q288 491 279 499T241 507H212V404H168V647ZM212 538H251Q275 538 288 547T301 578Q300 602 286 609T254 616H212V538Z"  />
<glyph unicode="&#xAF;" horiz-adv-x="465" d="M361 638H104V702H361V638Z"  />
<glyph unicode="&#xB0;" horiz-adv-x="372" d="M189 725Q217 725 241 714T284 684T314 640T325 586Q325 557 314 532T285 487T241 457T186 446Q157 446 132 457T87 487T57 531T46 587Q46 616 57 641T88 685T134 714T189 725ZM185 677Q149 677 123 651T96 586Q96 567 103 551T122 522T150 502T186 495Q224 495 250 521T276 587Q276 606 269 622T250 651T221 670T185 677Z"  />
<glyph unicode="&#xB1;" horiz-adv-x="539" d="M42 77V139H498V77H42ZM238 355H42V418H238V570H304V418H498V355H304V203H238V355Z"  />
<glyph unicode="&#xB2;" horiz-adv-x="381" d="M329 428H51V494Q112 547 150 584T211 648T241 697T249 739Q249 769 231 786T180 804Q156 804 131 796T81 770L55 822Q83 842 115 853T184 864Q248 864 285 832T321 740Q321 710 311 685T279 631T220 569T131 489V488H329V428Z"  />
<glyph unicode="&#xB3;" horiz-adv-x="381" d="M107 676H159Q201 676 226 693T252 744Q252 773 231 789T177 806Q128 806 79 780L60 837Q90 851 120 857T183 864Q211 864 237 858T282 837T313 802T324 753Q324 717 304 691T243 653V651Q286 642 310 614T335 550Q335 517 323 493T289 453T239 429T178 421Q102 421 46 449L68 507Q116 481 176 481Q215 481 238 497T262 551Q262 570 254 583T232 605T199 616T159 620H107V676Z"  />
<glyph unicode="&#xB4;" horiz-adv-x="465" d="M246 604H185L276 768H367L246 604Z"  />
<glyph unicode="&#xB5;" horiz-adv-x="633" d="M439 83Q417 38 373 13T272 -12Q237 -12 208 -3T170 20H168V-195H83V528H168V212Q168 176 173 148T193 98T231 66T291 55Q318 55 344 65T391 95T423 149T436 229V528H521V121Q521 84 532 72T567 60Q572 60 578 60T588 62V-2Q566 -7 544 -7Q451 -7 440 83H439Z"  />
<glyph unicode="&#xB6;" horiz-adv-x="558" d="M509 -117H443V660H319V-117H253V324Q207 324 169 338T104 378T61 437T45 510Q45 606 106 660T272 714H509V-117Z"  />
<glyph unicode="&#xB7;" horiz-adv-x="279" d="M89 353H190V252H89V353Z"  />
<glyph unicode="&#xB8;" horiz-adv-x="465" d="M206 -58Q212 -57 218 -57T232 -56Q264 -56 289 -74T314 -128Q314 -150 305 -166T279 -193T243 -209T201 -214Q187 -214 170 -213T139 -208L144 -163Q157 -165 169 -165T193 -166Q203 -166 213 -165T232 -161T247 -150T253 -132Q253 -114 239 -107T198 -99Q192 -99 178 -99T152 -101L167 10H219L206 -58Z"  />
<glyph unicode="&#xB9;" horiz-adv-x="381" d="M244 428H171V788L84 734L58 786L174 857H244V428Z"  />
<glyph unicode="&#xBA;" horiz-adv-x="376" d="M344 531Q344 454 302 410T188 365Q117 365 75 409T33 531Q33 607 74 652T188 697Q260 697 302 653T344 531ZM272 531Q272 583 252 613T188 644Q145 644 125 614T104 531Q104 480 126 449T188 418Q231 418 251 448T272 531Z"  />
<glyph unicode="&#xBB;" horiz-adv-x="528" d="M379 298L259 488H337L456 300V295L333 107H259L379 298ZM193 298L73 488H151L270 300V295L147 107H73L193 298Z"  />
<glyph unicode="&#xBC;" horiz-adv-x="883" d="M280 0H218L630 714H692L280 0ZM244 290H171V650L84 596L58 648L174 719H244V290ZM797 157H853V97H797V2H728V97H533V165L704 431H797V157ZM728 366H726L597 157H728V366Z"  />
<glyph unicode="&#xBD;" horiz-adv-x="883" d="M280 0H218L630 714H692L280 0ZM244 290H171V650L84 596L58 648L174 719H244V290ZM831 2H553V68Q614 121 652 158T713 222T743 271T751 313Q751 343 733 360T682 378Q658 378 633 370T583 344L557 396Q585 416 617 427T686 438Q750 438 787 406T823 314Q823 284 813 259T781 205T722 143T633 63V62H831V2Z"  />
<glyph unicode="&#xBE;" horiz-adv-x="883" d="M280 0H218L630 714H692L280 0ZM797 157H853V97H797V2H728V97H533V165L704 431H797V157ZM728 366H726L597 157H728V366ZM107 538H159Q201 538 226 555T252 606Q252 635 231 651T177 668Q128 668 79 642L60 699Q90 713 120 719T183 726Q211 726 237 720T282 699T313 664T324 615Q324 579 304 553T243 515V513Q286 504 310 476T335 412Q335 379 323 355T289 315T239 291T178 283Q102 283 46 311L68 369Q116 343 176 343Q215 343 238 359T262 413Q262 432 254 445T232 467T199 478T159 482H107V538Z"  />
<glyph unicode="&#xBF;" horiz-adv-x="464" d="M220 350H298V315Q298 282 293 257T278 210T250 169T210 130L179 104Q150 80 133 51T115 -19Q115 -51 126 -71T155 -104T197 -121T247 -126Q279 -126 316 -116T387 -86L413 -152Q376 -174 333 -186T238 -198Q198 -198 161 -190T94 -161T48 -106T30 -22Q30 12 38 39T60 89T94 130T135 166Q158 184 174 199T200 231T215 270T220 321V350ZM307 432H206V528H307V432Z"  />
<glyph unicode="&#xC0;" horiz-adv-x="668" d="M96 0H3L275 714H392L665 0H570L486 214H177L96 0ZM199 287H465L332 648L199 287ZM321 897L397 763H333L225 897H321Z"  />
<glyph unicode="&#xC1;" horiz-adv-x="668" d="M96 0H3L275 714H392L665 0H570L486 214H177L96 0ZM199 287H465L332 648L199 287ZM350 763H287L365 897H461L350 763Z"  />
<glyph unicode="&#xC2;" horiz-adv-x="668" d="M96 0H3L275 714H392L665 0H570L486 214H177L96 0ZM199 287H465L332 648L199 287ZM427 756L335 854L244 756H173L291 902H378L497 756H427Z"  />
<glyph unicode="&#xC3;" horiz-adv-x="668" d="M96 0H3L275 714H392L665 0H570L486 214H177L96 0ZM199 287H465L332 648L199 287ZM347 857Q370 839 381 833T405 827Q424 828 433 845T444 892H505Q501 837 480 803T413 765Q382 765 366 773T325 800Q302 818 291 824T266 830Q249 829 240 814T228 765H167Q171 823 194 857T264 892Q286 892 303 885T347 857Z"  />
<glyph unicode="&#xC4;" horiz-adv-x="668" d="M96 0H3L275 714H392L665 0H570L486 214H177L96 0ZM199 287H465L332 648L199 287ZM288 790H202V884H288V790ZM465 790H380V884H465V790Z"  />
<glyph unicode="&#xC5;" horiz-adv-x="668" d="M96 0H3L275 714H392L665 0H570L486 214H177L96 0ZM199 287H465L332 648L199 287ZM336 948Q357 948 375 940T406 917T428 885T436 846Q436 825 428 807T407 775T375 753T335 745Q314 745 295 753T262 774T240 806T232 846Q232 867 240 886T262 918T295 940T336 948ZM334 906Q310 906 292 889T274 846Q274 821 292 804T335 786Q359 786 376 803T394 846Q394 872 376 889T334 906Z"  />
<glyph unicode="&#xC6;" horiz-adv-x="879" d="M99 0H3L369 714H819V641H514V404H796V331H514V73H827V0H428V194H198L99 0ZM233 267H428V648H426L233 267Z"  />
<glyph unicode="&#xC7;" horiz-adv-x="605" d="M544 622Q515 638 481 645T409 653Q342 653 292 630T208 566T159 471T143 354Q143 295 159 242T209 149T292 85T407 61Q454 61 487 69T554 95L579 27Q541 6 496 -3T402 -12H389L380 -58Q386 -57 392 -57T406 -56Q438 -56 462 -74T488 -128Q488 -150 479 -166T453 -193T417 -209T375 -214Q361 -214 344 -213T313 -208L318 -163Q331 -165 343 -165T367 -166Q377 -166 387 -165T406 -161T421 -150T427 -132Q427 -113 413 -106T372 -99Q366 -99 352 -99T326 -101L338 -7Q271 3 219 33T130 112T75 221T56 355Q56 436 79 503T147 621T259 699T408 726Q453 726 495 718T571 691L544 622Z"  />
<glyph unicode="&#xC8;" horiz-adv-x="540" d="M88 714H480V641H175V404H456V331H175V73H488V0H88V714ZM260 897L336 763H272L164 897H260Z"  />
<glyph unicode="&#xC9;" horiz-adv-x="540" d="M88 714H480V641H175V404H456V331H175V73H488V0H88V714ZM312 763H249L327 897H423L312 763Z"  />
<glyph unicode="&#xCA;" horiz-adv-x="540" d="M88 714H480V641H175V404H456V331H175V73H488V0H88V714ZM380 756L288 854L197 756H126L244 902H331L450 756H380Z"  />
<glyph unicode="&#xCB;" horiz-adv-x="540" d="M88 714H480V641H175V404H456V331H175V73H488V0H88V714ZM246 790H160V884H246V790ZM423 790H338V884H423V790Z"  />
<glyph unicode="&#xCC;" horiz-adv-x="263" d="M88 714H175V0H88V714ZM98 897L174 763H110L2 897H98Z"  />
<glyph unicode="&#xCD;" horiz-adv-x="263" d="M88 714H175V0H88V714ZM160 763H97L175 897H271L160 763Z"  />
<glyph unicode="&#xCE;" horiz-adv-x="263" d="M88 714H175V0H88V714ZM225 756L133 854L42 756H-29L89 902H176L295 756H225Z"  />
<glyph unicode="&#xCF;" horiz-adv-x="263" d="M88 714H175V0H88V714ZM88 790H2V884H88V790ZM265 790H180V884H265V790Z"  />
<glyph unicode="&#xD0;" horiz-adv-x="699" d="M175 341V73H277Q416 74 485 149T554 354Q555 490 484 565T278 641H175V394H302V341H175ZM88 394V714H287Q374 714 439 689T549 618T617 506T641 357Q641 274 617 208T548 95T438 25T293 0H88V341H16V394H88Z"  />
<glyph unicode="&#xD1;" horiz-adv-x="701" d="M529 92H531V714H613V0H485L172 627H170V0H88V714H219L529 92ZM363 857Q386 839 397 833T421 827Q440 828 449 845T460 892H521Q517 837 496 803T429 765Q398 765 382 773T341 800Q318 818 307 824T282 830Q265 829 256 814T244 765H183Q187 823 210 857T280 892Q302 892 319 885T363 857Z"  />
<glyph unicode="&#xD2;" horiz-adv-x="754" d="M694 356Q694 276 673 209T612 92T512 16T377 -12Q301 -12 242 15T143 92T81 208T60 356Q60 437 81 504T142 621T242 698T377 726Q453 726 512 699T612 622T673 505T694 356ZM607 356Q607 417 593 471T551 565T478 629T372 653Q318 652 275 629T204 566T161 471T147 356Q147 295 161 242T203 148T275 85T377 61Q435 61 478 84T550 147T593 241T607 356ZM346 897L422 763H358L250 897H346Z"  />
<glyph unicode="&#xD3;" horiz-adv-x="754" d="M694 356Q694 276 673 209T612 92T512 16T377 -12Q301 -12 242 15T143 92T81 208T60 356Q60 437 81 504T142 621T242 698T377 726Q453 726 512 699T612 622T673 505T694 356ZM607 356Q607 417 593 471T551 565T478 629T372 653Q318 652 275 629T204 566T161 471T147 356Q147 295 161 242T203 148T275 85T377 61Q435 61 478 84T550 147T593 241T607 356ZM388 763H325L403 897H499L388 763Z"  />
<glyph unicode="&#xD4;" horiz-adv-x="754" d="M694 356Q694 276 673 209T612 92T512 16T377 -12Q301 -12 242 15T143 92T81 208T60 356Q60 437 81 504T142 621T242 698T377 726Q453 726 512 699T612 622T673 505T694 356ZM607 356Q607 417 593 471T551 565T478 629T372 653Q318 652 275 629T204 566T161 471T147 356Q147 295 161 242T203 148T275 85T377 61Q435 61 478 84T550 147T593 241T607 356ZM472 756L380 854L289 756H218L336 902H423L542 756H472Z"  />
<glyph unicode="&#xD5;" horiz-adv-x="754" d="M694 356Q694 276 673 209T612 92T512 16T377 -12Q301 -12 242 15T143 92T81 208T60 356Q60 437 81 504T142 621T242 698T377 726Q453 726 512 699T612 622T673 505T694 356ZM607 356Q607 417 593 471T551 565T478 629T372 653Q318 652 275 629T204 566T161 471T147 356Q147 295 161 242T203 148T275 85T377 61Q435 61 478 84T550 147T593 241T607 356ZM389 857Q412 839 423 833T447 827Q466 828 475 845T486 892H547Q543 837 522 803T455 765Q424 765 408 773T367 800Q344 818 333 824T308 830Q291 829 282 814T270 765H209Q213 823 236 857T306 892Q328 892 345 885T389 857Z"  />
<glyph unicode="&#xD6;" horiz-adv-x="754" d="M694 356Q694 276 673 209T612 92T512 16T377 -12Q301 -12 242 15T143 92T81 208T60 356Q60 437 81 504T142 621T242 698T377 726Q453 726 512 699T612 622T673 505T694 356ZM607 356Q607 417 593 471T551 565T478 629T372 653Q318 652 275 629T204 566T161 471T147 356Q147 295 161 242T203 148T275 85T377 61Q435 61 478 84T550 147T593 241T607 356ZM329 790H243V884H329V790ZM506 790H421V884H506V790Z"  />
<glyph unicode="&#xD7;" horiz-adv-x="539" d="M315 308L500 123L455 77L270 262L85 77L38 123L223 308L38 493L85 539L270 354L455 539L500 493L315 308Z"  />
<glyph unicode="&#xD8;" horiz-adv-x="754" d="M694 356Q694 276 673 209T612 92T512 16T377 -12Q316 -12 266 5T178 55L113 -29L70 5L140 95Q101 144 81 210T60 356Q60 437 81 504T142 621T241 698T377 726Q437 726 486 709T574 659L634 737L679 703L614 619Q653 569 673 503T694 356ZM607 356Q607 412 596 461T561 550L227 119Q255 91 292 76T377 61Q435 61 478 84T550 148T593 241T607 356ZM147 356Q147 301 158 252T193 164L525 595Q498 622 461 637T377 653Q318 653 275 630T204 566T161 471T147 356Z"  />
<glyph unicode="&#xD9;" horiz-adv-x="675" d="M600 211Q600 162 582 122T531 51T448 5T337 -12Q276 -12 228 4T145 51T93 121T75 211V714H162V220Q162 143 206 102T336 61Q422 62 467 104T513 220V714H600V211ZM300 897L376 763H312L204 897H300Z"  />
<glyph unicode="&#xDA;" horiz-adv-x="675" d="M600 211Q600 162 582 122T531 51T448 5T337 -12Q276 -12 228 4T145 51T93 121T75 211V714H162V220Q162 143 206 102T336 61Q422 62 467 104T513 220V714H600V211ZM354 763H291L369 897H465L354 763Z"  />
<glyph unicode="&#xDB;" horiz-adv-x="675" d="M600 211Q600 162 582 122T531 51T448 5T337 -12Q276 -12 228 4T145 51T93 121T75 211V714H162V220Q162 143 206 102T336 61Q422 62 467 104T513 220V714H600V211ZM427 756L335 854L244 756H173L291 902H378L497 756H427Z"  />
<glyph unicode="&#xDC;" horiz-adv-x="675" d="M600 211Q600 162 582 122T531 51T448 5T337 -12Q276 -12 228 4T145 51T93 121T75 211V714H162V220Q162 143 206 102T336 61Q422 62 467 104T513 220V714H600V211ZM289 790H203V884H289V790ZM466 790H381V884H466V790Z"  />
<glyph unicode="&#xDD;" horiz-adv-x="611" d="M262 291L1 714H104L307 372L513 714H610L349 291V0H262V291ZM333 763H270L348 897H444L333 763Z"  />
<glyph unicode="&#xDE;" horiz-adv-x="607" d="M88 714H175V591H326Q376 591 417 581T489 546T539 483T557 383Q557 327 539 286T489 221T417 186T327 175H175V0H88V714ZM175 247H319Q351 247 377 252T425 273T458 314T470 382Q470 423 458 450T424 492T373 512T314 518H175V247Z"  />
<glyph unicode="&#xDF;" horiz-adv-x="664" d="M334 735Q382 735 422 724T493 689T541 629T559 544Q559 472 515 429T397 376V374Q434 371 468 361T531 329T577 275T594 191Q593 135 575 97T527 34T456 -1T373 -12Q341 -12 307 -6T247 11L263 76Q286 66 316 61T373 55Q437 55 472 88T509 189Q509 219 499 245T465 290T404 320T310 331V404Q393 409 433 442T474 535Q474 568 463 592T432 632T386 655T332 662Q296 662 267 653T215 622T181 566T168 480V0H83V491Q83 558 104 605T162 681T242 722T334 735Z"  />
<glyph unicode="&#xE0;" horiz-adv-x="554" d="M387 342Q389 473 259 473Q227 473 192 465T124 442L105 509Q136 522 179 531T263 540Q359 541 415 494T472 351V120Q472 94 474 61T482 0H407Q398 33 395 79H393Q371 40 330 15T224 -12Q191 -12 160 -3T105 25T65 75T50 147Q51 204 77 239T150 295T258 322T387 329V342ZM363 268Q318 268 277 263T204 246T152 211T132 152Q131 110 155 83T229 55Q268 55 298 68T347 105T377 159T387 223V268H363ZM149 768H240L331 604H270L149 768Z"  />
<glyph unicode="&#xE1;" horiz-adv-x="554" d="M387 342Q389 473 259 473Q227 473 192 465T124 442L105 509Q136 522 179 531T263 540Q359 541 415 494T472 351V120Q472 94 474 61T482 0H407Q398 33 395 79H393Q371 40 330 15T224 -12Q191 -12 160 -3T105 25T65 75T50 147Q51 204 77 239T150 295T258 322T387 329V342ZM363 268Q318 268 277 263T204 246T152 211T132 152Q131 110 155 83T229 55Q268 55 298 68T347 105T377 159T387 223V268H363ZM287 604H226L317 768H408L287 604Z"  />
<glyph unicode="&#xE2;" horiz-adv-x="554" d="M387 342Q389 473 259 473Q227 473 192 465T124 442L105 509Q136 522 179 531T263 540Q359 541 415 494T472 351V120Q472 94 474 61T482 0H407Q398 33 395 79H393Q371 40 330 15T224 -12Q191 -12 160 -3T105 25T65 75T50 147Q51 204 77 239T150 295T258 322T387 329V342ZM363 268Q318 268 277 263T204 246T152 211T132 152Q131 110 155 83T229 55Q268 55 298 68T347 105T377 159T387 223V268H363ZM370 604L278 720L187 604H116L234 768H321L440 604H370Z"  />
<glyph unicode="&#xE3;" horiz-adv-x="554" d="M387 342Q389 473 259 473Q227 473 192 465T124 442L105 509Q136 522 179 531T263 540Q359 541 415 494T472 351V120Q472 94 474 61T482 0H407Q398 33 395 79H393Q371 40 330 15T224 -12Q191 -12 160 -3T105 25T65 75T50 147Q51 204 77 239T150 295T258 322T387 329V342ZM363 268Q318 268 277 263T204 246T152 211T132 152Q131 110 155 83T229 55Q268 55 298 68T347 105T377 159T387 223V268H363ZM289 708Q312 690 323 684T346 677Q365 677 374 694T386 742H447Q444 687 421 652T350 616Q325 616 308 623T267 650Q244 668 233 674T209 681Q190 680 181 662T170 616H109Q113 673 136 707T206 742Q229 742 246 735T289 708Z"  />
<glyph unicode="&#xE4;" horiz-adv-x="554" d="M387 342Q389 473 259 473Q227 473 192 465T124 442L105 509Q136 522 179 531T263 540Q359 541 415 494T472 351V120Q472 94 474 61T482 0H407Q398 33 395 79H393Q371 40 330 15T224 -12Q191 -12 160 -3T105 25T65 75T50 147Q51 204 77 239T150 295T258 322T387 329V342ZM363 268Q318 268 277 263T204 246T152 211T132 152Q131 110 155 83T229 55Q268 55 298 68T347 105T377 159T387 223V268H363ZM233 626H147V720H233V626ZM410 626H325V720H410V626Z"  />
<glyph unicode="&#xE5;" horiz-adv-x="554" d="M387 342Q389 473 259 473Q227 473 192 465T124 442L105 509Q136 522 179 531T263 540Q359 541 415 494T472 351V120Q472 94 474 61T482 0H407Q398 33 395 79H393Q371 40 330 15T224 -12Q191 -12 160 -3T105 25T65 75T50 147Q51 204 77 239T150 295T258 322T387 329V342ZM363 268Q318 268 277 263T204 246T152 211T132 152Q131 110 155 83T229 55Q268 55 298 68T347 105T377 159T387 223V268H363ZM283 797Q304 797 322 789T353 767T375 735T383 696Q383 675 375 656T354 624T322 602T282 594Q261 594 242 602T209 623T187 656T179 696Q179 717 187 735T209 767T242 789T283 797ZM281 755Q256 755 239 738T221 696Q221 670 239 653T282 635Q306 635 323 652T341 696Q341 721 324 738T281 755Z"  />
<glyph unicode="&#xE6;" horiz-adv-x="888" d="M646 55Q683 55 720 61T789 81L803 16Q770 2 728 -5T644 -12Q559 -11 507 22T425 117H423Q415 92 400 69T360 27T302 -1T226 -12Q191 -12 160 -4T104 23T65 71T50 141Q50 196 77 232T152 286T259 311T387 317V345Q387 473 261 473Q227 473 192 465T124 442L105 509Q136 522 179 531T263 540Q330 540 375 518T443 447H445Q469 486 513 512T619 540Q717 540 774 477T834 298V247H465Q468 205 481 170T517 109T572 69T646 55ZM363 256Q318 256 277 252T203 236T152 203T132 147Q132 55 237 55Q276 55 305 71T351 113T378 170T387 233V256H363ZM620 473Q556 473 516 432T467 314H757V320Q756 391 718 432T620 473Z"  />
<glyph unicode="&#xE7;" horiz-adv-x="490" d="M429 451Q381 473 325 473Q281 473 247 457T189 412T153 345T141 263Q141 220 153 182T188 116T245 72T325 55Q354 55 378 59T431 77L445 10Q413 -2 384 -7T324 -12H305L296 -58Q302 -57 308 -57T325 -56Q354 -56 378 -74T404 -128Q404 -150 395 -166T369 -193T333 -209T291 -214Q277 -214 260 -213T229 -208L234 -163Q247 -165 259 -165T294 -166Q293 -166 303 -165T322 -161T337 -150T343 -132Q342 -112 327 -106T291 -99Q282 -99 268 -99T242 -101L255 -5Q206 5 169 29T107 88T69 168T56 263Q56 323 74 374T127 461T211 519T323 540Q395 540 448 518L429 451Z"  />
<glyph unicode="&#xE8;" horiz-adv-x="567" d="M138 241Q142 158 191 107T327 55Q362 55 399 61T467 81L481 16Q448 2 407 -5T323 -12Q257 -11 209 8T125 66T73 154T56 263Q56 323 72 373T120 461T195 519T294 540Q349 540 390 522T459 470T499 388T513 282V241H138ZM295 473Q226 473 186 428T138 308H436V312Q435 388 397 430T295 473ZM163 768H254L345 604H284L163 768Z"  />
<glyph unicode="&#xE9;" horiz-adv-x="567" d="M138 241Q142 158 191 107T327 55Q362 55 399 61T467 81L481 16Q448 2 407 -5T323 -12Q257 -11 209 8T125 66T73 154T56 263Q56 323 72 373T120 461T195 519T294 540Q349 540 390 522T459 470T499 388T513 282V241H138ZM295 473Q226 473 186 428T138 308H436V312Q435 388 397 430T295 473ZM310 604H249L340 768H431L310 604Z"  />
<glyph unicode="&#xEA;" horiz-adv-x="567" d="M138 241Q142 158 191 107T327 55Q362 55 399 61T467 81L481 16Q448 2 407 -5T323 -12Q257 -11 209 8T125 66T73 154T56 263Q56 323 72 373T120 461T195 519T294 540Q349 540 390 522T459 470T499 388T513 282V241H138ZM295 473Q226 473 186 428T138 308H436V312Q435 388 397 430T295 473ZM390 604L298 720L207 604H136L254 768H341L460 604H390Z"  />
<glyph unicode="&#xEB;" horiz-adv-x="567" d="M138 241Q142 158 191 107T327 55Q362 55 399 61T467 81L481 16Q448 2 407 -5T323 -12Q257 -11 209 8T125 66T73 154T56 263Q56 323 72 373T120 461T195 519T294 540Q349 540 390 522T459 470T499 388T513 282V241H138ZM295 473Q226 473 186 428T138 308H436V312Q435 388 397 430T295 473ZM254 626H168V720H254V626ZM431 626H346V720H431V626Z"  />
<glyph unicode="&#xEC;" horiz-adv-x="251" d="M168 528V0H83V528H168ZM-14 768H77L168 604H107L-14 768Z"  />
<glyph unicode="&#xED;" horiz-adv-x="251" d="M168 528V0H83V528H168ZM149 604H88L179 768H270L149 604Z"  />
<glyph unicode="&#xEE;" horiz-adv-x="251" d="M168 528V0H83V528H168ZM222 604L130 720L39 604H-32L86 768H173L292 604H222Z"  />
<glyph unicode="&#xEF;" horiz-adv-x="251" d="M168 528V0H83V528H168ZM84 626H-2V720H84V626ZM261 626H176V720H261V626Z"  />
<glyph unicode="&#xF0;" horiz-adv-x="603" d="M464 242Q464 327 421 377T302 428Q227 428 184 378T141 242Q141 156 184 106T302 55Q378 55 421 105T464 242ZM419 629Q454 594 479 551T519 459T540 359T547 256Q547 195 531 146T485 62T409 8T302 -12Q245 -12 200 5T122 56T73 137T56 242Q56 301 73 348T121 427T199 477T302 495Q340 495 375 484T438 453H440Q431 489 405 527T337 598L163 525V588L278 634Q230 658 166 666L193 735Q246 727 290 710T370 669L485 720V658L419 629Z"  />
<glyph unicode="&#xF1;" horiz-adv-x="598" d="M165 528V450H166Q190 492 233 516T332 540Q420 540 470 488T521 348V0H436V316Q436 352 430 381T410 431T372 462T312 473Q285 473 259 463T213 433T181 379T168 299V0H83V528H165ZM329 708Q352 690 363 684T386 677Q405 677 414 694T426 742H487Q484 687 461 652T390 616Q365 616 348 623T307 650Q284 668 273 674T249 681Q230 680 221 662T210 616H149Q153 673 176 707T246 742Q269 742 286 735T329 708Z"  />
<glyph unicode="&#xF2;" horiz-adv-x="602" d="M546 265Q546 200 529 149T480 62T403 7T301 -12Q244 -12 199 7T122 62T73 149T56 265Q56 329 73 380T122 467T199 521T301 540Q358 540 403 521T480 467T529 381T546 265ZM461 265Q461 311 452 349T423 414T373 457T301 473Q260 473 230 458T180 415T151 349T141 265Q141 219 151 181T180 114T230 71T301 55Q342 55 372 70T422 114T451 180T461 265ZM168 768H259L350 604H289L168 768Z"  />
<glyph unicode="&#xF3;" horiz-adv-x="602" d="M546 265Q546 200 529 149T480 62T403 7T301 -12Q244 -12 199 7T122 62T73 149T56 265Q56 329 73 380T122 467T199 521T301 540Q358 540 403 521T480 467T529 381T546 265ZM461 265Q461 311 452 349T423 414T373 457T301 473Q260 473 230 458T180 415T151 349T141 265Q141 219 151 181T180 114T230 71T301 55Q342 55 372 70T422 114T451 180T461 265ZM311 604H250L341 768H432L311 604Z"  />
<glyph unicode="&#xF4;" horiz-adv-x="602" d="M546 265Q546 200 529 149T480 62T403 7T301 -12Q244 -12 199 7T122 62T73 149T56 265Q56 329 73 380T122 467T199 521T301 540Q358 540 403 521T480 467T529 381T546 265ZM461 265Q461 311 452 349T423 414T373 457T301 473Q260 473 230 458T180 415T151 349T141 265Q141 219 151 181T180 114T230 71T301 55Q342 55 372 70T422 114T451 180T461 265ZM393 604L301 720L210 604H139L257 768H344L463 604H393Z"  />
<glyph unicode="&#xF5;" horiz-adv-x="602" d="M546 265Q546 200 529 149T480 62T403 7T301 -12Q244 -12 199 7T122 62T73 149T56 265Q56 329 73 380T122 467T199 521T301 540Q358 540 403 521T480 467T529 381T546 265ZM461 265Q461 311 452 349T423 414T373 457T301 473Q260 473 230 458T180 415T151 349T141 265Q141 219 151 181T180 114T230 71T301 55Q342 55 372 70T422 114T451 180T461 265ZM316 708Q339 690 350 684T373 677Q392 677 401 694T413 742H474Q471 687 448 652T377 616Q352 616 335 623T294 650Q271 668 260 674T236 681Q217 680 208 662T197 616H136Q140 673 163 707T233 742Q256 742 273 735T316 708Z"  />
<glyph unicode="&#xF6;" horiz-adv-x="602" d="M546 265Q546 200 529 149T480 62T403 7T301 -12Q244 -12 199 7T122 62T73 149T56 265Q56 329 73 380T122 467T199 521T301 540Q358 540 403 521T480 467T529 381T546 265ZM461 265Q461 311 452 349T423 414T373 457T301 473Q260 473 230 458T180 415T151 349T141 265Q141 219 151 181T180 114T230 71T301 55Q342 55 372 70T422 114T451 180T461 265ZM255 626H169V720H255V626ZM432 626H347V720H432V626Z"  />
<glyph unicode="&#xF7;" horiz-adv-x="539" d="M42 284V346H498V284H42ZM316 91H232V178H316V91ZM316 450H232V537H316V450Z"  />
<glyph unicode="&#xF8;" horiz-adv-x="602" d="M546 265Q546 200 529 149T480 62T403 7T301 -12Q253 -12 213 1T142 41L83 -30L48 0L111 75Q56 147 56 265Q56 329 73 380T122 467T199 521T301 540Q394 540 457 489L512 555L547 525L489 456Q546 384 546 265ZM461 265Q461 302 455 334T436 392L191 100Q231 55 301 55Q342 55 372 70T422 114T451 180T461 265ZM141 265Q141 191 165 140L408 431Q368 473 301 473Q260 473 230 458T180 415T151 349T141 265Z"  />
<glyph unicode="&#xF9;" horiz-adv-x="598" d="M433 0V78H432Q408 36 365 12T266 -12Q176 -11 127 40T77 180V528H162V212Q162 175 168 146T188 97T226 66T286 55Q313 55 339 65T385 95T417 149T430 229V528H515V0H433ZM159 768H250L341 604H280L159 768Z"  />
<glyph unicode="&#xFA;" horiz-adv-x="598" d="M433 0V78H432Q408 36 365 12T266 -12Q176 -11 127 40T77 180V528H162V212Q162 175 168 146T188 97T226 66T286 55Q313 55 339 65T385 95T417 149T430 229V528H515V0H433ZM319 604H258L349 768H440L319 604Z"  />
<glyph unicode="&#xFB;" horiz-adv-x="598" d="M433 0V78H432Q408 36 365 12T266 -12Q176 -11 127 40T77 180V528H162V212Q162 175 168 146T188 97T226 66T286 55Q313 55 339 65T385 95T417 149T430 229V528H515V0H433ZM391 604L299 720L208 604H137L255 768H342L461 604H391Z"  />
<glyph unicode="&#xFC;" horiz-adv-x="598" d="M433 0V78H432Q408 36 365 12T266 -12Q176 -11 127 40T77 180V528H162V212Q162 175 168 146T188 97T226 66T286 55Q313 55 339 65T385 95T417 149T430 229V528H515V0H433ZM253 626H167V720H253V626ZM430 626H345V720H430V626Z"  />
<glyph unicode="&#xFD;" horiz-adv-x="512" d="M257 103H259L415 528H505L217 -195H128L211 9L7 528H100L257 103ZM281 604H220L311 768H402L281 604Z"  />
<glyph unicode="&#xFE;" horiz-adv-x="618" d="M167 -195H83V735H167V448H169Q199 495 243 517T335 540Q387 540 428 519T498 460T542 373T557 265Q557 207 542 157T497 69T426 10T331 -12Q282 -12 240 8T169 73H167V-195ZM472 265Q472 308 463 346T435 412T388 456T322 473Q284 473 254 457T204 413T174 347T163 265Q163 221 173 183T204 116T254 72T322 55Q359 55 387 71T434 117T462 184T472 265Z"  />
<glyph unicode="&#xFF;" horiz-adv-x="512" d="M257 103H259L415 528H505L217 -195H128L211 9L7 528H100L257 103ZM214 626H128V720H214V626ZM391 626H306V720H391V626Z"  />
<glyph unicode="&#x131;" horiz-adv-x="251" d="M168 528V0H83V528H168Z"  />
<glyph unicode="&#x152;" horiz-adv-x="960" d="M59 357Q59 440 82 505T151 618T262 689T413 714H900V641H595V404H877V331H595V73H908V0H410Q327 0 262 25T152 95T83 208T59 357ZM508 641H426Q287 641 217 566T146 359Q145 225 216 149T424 73H508V641Z"  />
<glyph unicode="&#x153;" horiz-adv-x="967" d="M538 241Q543 156 591 106T725 55Q762 55 799 61T867 81L881 16Q848 2 807 -5T723 -12Q643 -11 588 19T503 104Q474 48 423 18T301 -12Q244 -12 199 7T122 62T73 149T56 265Q56 329 73 380T122 467T199 521T301 540Q372 540 422 511T502 426Q530 480 579 510T694 540Q748 540 790 522T859 469T899 388T913 282V241H538ZM462 265Q462 311 453 348T423 414T372 458T301 473Q260 473 230 458T180 415T151 349T141 265Q141 219 151 181T180 114T230 71T301 55Q342 55 372 70T423 114T452 181T462 265ZM695 473Q626 473 586 428T538 308H836V312Q836 387 797 430T695 473Z"  />
<glyph unicode="&#x160;" horiz-adv-x="542" d="M443 623Q368 653 286 653Q260 653 235 648T189 630T155 597T142 544Q142 520 149 501T174 466T220 434T291 402Q343 382 380 362T444 316T483 259T496 185Q496 132 475 95T420 34T343 -1T256 -12Q208 -12 152 -1T45 32L67 107Q116 83 166 72T258 61Q290 61 317 68T365 90T397 127T409 179Q409 206 398 228T364 267T311 300T238 333Q145 370 101 418T55 536Q55 587 76 623T130 681T205 715T287 726Q335 726 380 719T464 696L443 623ZM193 901L285 804L376 901H447L329 755H242L123 901H193Z"  />
<glyph unicode="&#x161;" horiz-adv-x="469" d="M372 446Q340 461 308 467T241 473Q223 473 206 470T174 458T150 436T141 400Q141 383 146 370T165 346T200 324T253 301Q291 287 321 272T373 239T406 195T418 137Q418 95 401 66T357 20T295 -4T225 -12Q186 -12 138 -3T48 26L70 93Q112 74 153 65T227 55Q273 54 303 71T335 132Q334 169 302 192T207 238Q136 263 98 299T59 391Q60 431 75 458T117 504T175 531T241 540Q283 540 323 533T392 511L372 446ZM154 767L246 651L337 767H408L290 603H203L84 767H154Z"  />
<glyph unicode="&#x178;" horiz-adv-x="611" d="M262 291L1 714H104L307 372L513 714H610L349 291V0H262V291ZM263 790H177V884H263V790ZM440 790H355V884H440V790Z"  />
<glyph unicode="&#x17D;" horiz-adv-x="582" d="M428 641H74V714H527V642L145 73H540V0H47V73L428 641ZM211 901L303 804L394 901H465L347 755H260L141 901H211Z"  />
<glyph unicode="&#x17E;" horiz-adv-x="491" d="M338 461H67V528H435V464L146 67H445V0H47V61L338 461ZM164 767L256 651L347 767H418L300 603H213L94 767H164Z"  />
<glyph unicode="&#x192;" horiz-adv-x="539" d="M450 337H313L265 22Q260 -11 249 -39T217 -89T168 -123T98 -135Q78 -135 55 -131T13 -119L27 -49Q41 -55 59 -58T94 -62Q135 -62 155 -40T183 36L227 337H101V404H238L264 571Q270 601 282 629T315 678T367 713T440 726Q466 726 489 722T530 709L507 639Q492 647 474 650T440 653Q416 653 399 645T372 624T355 592T345 551L322 404H450V337Z"  />
<glyph unicode="&#x2C6;" horiz-adv-x="465" d="M324 604L232 720L141 604H70L188 768H275L394 604H324Z"  />
<glyph unicode="&#x2C7;" horiz-adv-x="465" d="M140 767L232 651L323 767H394L276 603H189L70 767H140Z"  />
<glyph unicode="&#x2DA;" horiz-adv-x="465" d="M234 797Q255 797 273 789T304 767T326 735T334 696Q334 675 326 656T305 624T273 602T233 594Q212 594 193 602T160 623T138 656T130 696Q130 717 138 735T160 767T193 789T234 797ZM232 755Q207 755 190 738T172 696Q172 670 190 653T233 635Q257 635 274 652T292 696Q292 721 275 738T232 755Z"  />
<glyph unicode="&#x2DC;" horiz-adv-x="465" d="M245 708Q268 690 279 684T302 677Q321 677 330 694T342 742H403Q400 687 377 652T306 616Q281 616 264 623T223 650Q200 668 189 674T165 681Q146 680 137 662T126 616H65Q69 673 92 707T162 742Q185 742 202 735T245 708Z"  />
<glyph unicode="&#x3BC;" horiz-adv-x="633" d="M439 83Q417 38 373 13T272 -12Q237 -12 208 -3T170 20H168V-195H83V528H168V212Q168 176 173 148T193 98T231 66T291 55Q318 55 344 65T391 95T423 149T436 229V528H521V121Q521 84 532 72T567 60Q572 60 578 60T588 62V-2Q566 -7 544 -7Q451 -7 440 83H439Z"  />
<glyph unicode="&#x2013;" horiz-adv-x="500" d="M473 271H27V329H473V271Z"  />
<glyph unicode="&#x2014;" horiz-adv-x="800" d="M773 271H27V329H773V271Z"  />
<glyph unicode="&#x2018;" horiz-adv-x="280" d="M165 513H70L153 735H210L165 513Z"  />
<glyph unicode="&#x2019;" horiz-adv-x="280" d="M115 735H210L127 512H70L115 735Z"  />
<glyph unicode="&#x201A;" horiz-adv-x="280" d="M115 84H210L126 -138H70L115 84Z"  />
<glyph unicode="&#x201C;" horiz-adv-x="420" d="M304 512H214L294 735H350L304 512ZM160 512H70L154 735H210L160 512Z"  />
<glyph unicode="&#x201D;" horiz-adv-x="420" d="M115 735H206L126 513H70L115 735ZM259 735H350L265 513H209L259 735Z"  />
<glyph unicode="&#x201E;" horiz-adv-x="420" d="M115 84H206L126 -138H70L115 84ZM259 84H350L265 -138H209L259 84Z"  />
<glyph unicode="&#x2020;" horiz-adv-x="517" d="M299 478H488V404H299V-126H219V404H29V478H219V668H299V478Z"  />
<glyph unicode="&#x2021;" horiz-adv-x="517" d="M299 489H480V415H299V126H480V52H299V-126H219V52H37V126H219V415H37V489H219V668H299V489Z"  />
<glyph unicode="&#x2022;" horiz-adv-x="465" d="M68 329Q68 363 81 393T116 446T168 481T232 494Q265 494 296 481T349 446T384 394T397 329Q397 295 384 265T349 213T297 178T232 165Q200 164 169 177T116 212T81 264T68 329Z"  />
<glyph unicode="&#x2026;" horiz-adv-x="841" d="M91 101H192V0H91V101ZM370 101H471V0H370V101ZM649 101H750V0H649V101Z"  />
<glyph unicode="&#x2030;" horiz-adv-x="1142" d="M206 0H146L596 714H654L206 0ZM348 528Q348 441 311 392T206 342Q139 342 102 391T65 528Q65 616 102 665T206 715Q274 715 311 666T348 528ZM280 528Q280 555 276 578T263 620T240 648T206 658Q187 658 173 648T151 620T138 579T134 528Q134 502 138 479T150 438T173 410T206 400Q226 400 240 410T263 437T276 478T280 528ZM739 186Q739 99 703 50T598 0Q530 1 494 50T457 186Q457 274 494 323T598 373Q666 372 702 323T739 186ZM671 186Q671 213 667 236T655 277T632 305T598 315Q560 314 543 278T525 186Q525 159 529 136T542 96T564 68T598 58Q618 58 632 68T654 95T667 136T671 186ZM1077 186Q1077 99 1041 50T936 0Q868 0 831 49T794 186Q794 274 831 323T936 373Q1003 373 1040 324T1077 186ZM1009 186Q1009 213 1005 236T993 277T970 305T936 315Q916 315 902 305T880 278T867 237T863 186Q863 159 867 136T879 96T902 68T936 58Q956 58 970 68T992 95T1005 136T1009 186Z"  />
<glyph unicode="&#x2039;" horiz-adv-x="342" d="M150 298L270 107H192L73 295V300L195 488H270L150 298Z"  />
<glyph unicode="&#x203A;" horiz-adv-x="342" d="M193 298L73 488H151L270 300V295L147 107H73L193 298Z"  />
<glyph unicode="&#x2044;" horiz-adv-x="121" d="M-115 0H-177L235 714H297L-115 0Z"  />
<glyph unicode="&#x2074;" horiz-adv-x="381" d="M295 583H351V523H295V428H226V523H31V591L202 857H295V583ZM226 792H224L95 583H226V792Z"  />
<glyph unicode="&#x20AC;" horiz-adv-x="660" d="M112 321Q111 329 111 337T111 355Q111 373 111 384T113 410H28L46 469H123Q136 528 162 574T230 654T327 707T452 726Q498 726 540 718T611 694L589 622Q561 638 527 645T454 653Q403 653 363 640T292 602T243 544T212 469H544L527 410H201Q198 383 198 354Q198 346 198 338T199 321H511L494 262H207Q217 219 236 183T286 119T357 76T451 61Q497 61 532 69T599 95L623 27Q584 6 540 -3T446 -12Q378 -12 322 7T225 63T157 149T119 262H29L47 321H112Z"  />
<glyph unicode="&#x2122;" horiz-adv-x="930" d="M354 664H251V331H191V664H86V714H354V664ZM779 331H724V653H722L620 331H565L464 653H462V331H406V714H502L593 407H595L686 714H779V331Z"  />

</font>
</defs>
</svg>
